<svg width="1921" height="453" viewBox="0 0 1921 453" fill="none" xmlns="http://www.w3.org/2000/svg">
<rect width="1920" height="453" fill="#2593F7"/>
<mask id="mask0_260_1654" style="mask-type:alpha" maskUnits="userSpaceOnUse" x="1678" y="0" width="243" height="453">
<rect x="1678" width="243" height="453" fill="#D9D9D9"/>
</mask>
<g mask="url(#mask0_260_1654)">
<g opacity="0.8">
<g opacity="0.5">
<path d="M1674.76 453.2L1716.21 434.725" stroke="white" stroke-width="0.148077" stroke-miterlimit="10"/>
<path d="M1678.03 444.693L1719.48 426.218" stroke="white" stroke-width="0.200104" stroke-miterlimit="10"/>
<path d="M1681.29 436.188L1722.74 417.713" stroke="white" stroke-width="0.252132" stroke-miterlimit="10"/>
<path d="M1684.55 427.682L1726 409.206" stroke="white" stroke-width="0.304159" stroke-miterlimit="10"/>
<path d="M1687.81 419.177L1729.26 400.701" stroke="white" stroke-width="0.356186" stroke-miterlimit="10"/>
<path d="M1691.07 410.67L1732.52 392.194" stroke="white" stroke-width="0.408213" stroke-miterlimit="10"/>
<path d="M1694.33 402.165L1735.78 383.689" stroke="white" stroke-width="0.46024" stroke-miterlimit="10"/>
<path d="M1697.59 393.659L1739.04 375.184" stroke="white" stroke-width="0.512267" stroke-miterlimit="10"/>
<path d="M1700.85 385.153L1742.3 366.678" stroke="white" stroke-width="0.564295" stroke-miterlimit="10"/>
<path d="M1704.12 376.647L1745.57 358.172" stroke="white" stroke-width="0.616322" stroke-miterlimit="10"/>
<path d="M1707.38 368.142L1748.83 349.666" stroke="white" stroke-width="0.668349" stroke-miterlimit="10"/>
<path d="M1710.64 359.636L1752.09 341.16" stroke="white" stroke-width="0.720376" stroke-miterlimit="10"/>
<path d="M1713.9 351.13L1755.35 332.654" stroke="white" stroke-width="0.772403" stroke-miterlimit="10"/>
<path d="M1717.16 342.624L1758.61 324.148" stroke="white" stroke-width="0.82443" stroke-miterlimit="10"/>
<path d="M1720.42 334.118L1761.87 315.643" stroke="white" stroke-width="0.876458" stroke-miterlimit="10"/>
<path d="M1723.68 325.612L1765.13 307.137" stroke="white" stroke-width="0.928485" stroke-miterlimit="10"/>
<path d="M1726.95 317.106L1768.4 298.631" stroke="white" stroke-width="0.980512" stroke-miterlimit="10"/>
<path d="M1730.21 308.601L1771.66 290.125" stroke="white" stroke-width="1.03254" stroke-miterlimit="10"/>
<path d="M1733.47 300.095L1774.92 281.619" stroke="white" stroke-width="1.08457" stroke-miterlimit="10"/>
<path d="M1736.73 291.589L1778.18 273.113" stroke="white" stroke-width="1.13659" stroke-miterlimit="10"/>
<path d="M1739.99 283.083L1781.44 264.607" stroke="white" stroke-width="1.18862" stroke-miterlimit="10"/>
<path d="M1743.25 274.577L1784.7 256.102" stroke="white" stroke-width="1.24065" stroke-miterlimit="10"/>
<path d="M1746.51 266.071L1787.96 247.596" stroke="white" stroke-width="1.29268" stroke-miterlimit="10"/>
<path d="M1749.78 257.565L1791.23 239.09" stroke="white" stroke-width="1.3447" stroke-miterlimit="10"/>
<path d="M1753.04 249.06L1794.49 230.584" stroke="white" stroke-width="1.39673" stroke-miterlimit="10"/>
<path d="M1756.3 240.554L1797.75 222.078" stroke="white" stroke-width="1.44876" stroke-miterlimit="10"/>
<path d="M1759.56 232.048L1801.01 213.572" stroke="white" stroke-width="1.50078" stroke-miterlimit="10"/>
<path d="M1762.82 223.542L1804.27 205.066" stroke="white" stroke-width="1.55281" stroke-miterlimit="10"/>
<path d="M1766.08 215.036L1807.53 196.561" stroke="white" stroke-width="1.60484" stroke-miterlimit="10"/>
<path d="M1769.34 206.531L1810.79 188.056" stroke="white" stroke-width="1.65687" stroke-miterlimit="10"/>
<path d="M1772.6 198.024L1814.05 179.549" stroke="white" stroke-width="1.70889" stroke-miterlimit="10"/>
<path d="M1775.87 189.519L1817.32 171.043" stroke="white" stroke-width="1.76092" stroke-miterlimit="10"/>
<path d="M1779.13 181.013L1820.58 162.537" stroke="white" stroke-width="1.81295" stroke-miterlimit="10"/>
<path d="M1782.39 172.507L1823.84 154.031" stroke="white" stroke-width="1.86397" stroke-miterlimit="10"/>
<path d="M1785.65 164.001L1827.1 145.525" stroke="white" stroke-width="1.916" stroke-miterlimit="10"/>
<path d="M1788.91 155.495L1830.36 137.02" stroke="white" stroke-width="1.96803" stroke-miterlimit="10"/>
<path d="M1792.17 146.989L1833.62 128.514" stroke="white" stroke-width="2.02005" stroke-miterlimit="10"/>
<path d="M1795.43 138.483L1836.88 120.008" stroke="white" stroke-width="2.07208" stroke-miterlimit="10"/>
<path d="M1798.7 129.977L1840.15 111.502" stroke="white" stroke-width="2.12411" stroke-miterlimit="10"/>
<path d="M1801.96 121.472L1843.41 102.996" stroke="white" stroke-width="2.17614" stroke-miterlimit="10"/>
<path d="M1805.22 112.966L1846.67 94.4902" stroke="white" stroke-width="2.22816" stroke-miterlimit="10"/>
<path d="M1808.48 104.46L1849.93 85.9844" stroke="white" stroke-width="2.28019" stroke-miterlimit="10"/>
<path d="M1811.74 95.9541L1853.19 77.4785" stroke="white" stroke-width="2.33222" stroke-miterlimit="10"/>
<path d="M1815 87.4482L1856.45 68.9727" stroke="white" stroke-width="2.38424" stroke-miterlimit="10"/>
<path d="M1818.26 78.9414L1859.71 60.4658" stroke="white" stroke-width="2.43627" stroke-miterlimit="10"/>
<path d="M1821.52 70.4365L1862.97 51.9609" stroke="white" stroke-width="2.4883" stroke-miterlimit="10"/>
<path d="M1824.79 61.9306L1866.24 43.4551" stroke="white" stroke-width="2.54033" stroke-miterlimit="10"/>
<path d="M1828.05 53.4248L1869.5 34.9492" stroke="white" stroke-width="2.59235" stroke-miterlimit="10"/>
<path d="M1831.31 44.9189L1872.76 26.4434" stroke="white" stroke-width="2.64438" stroke-miterlimit="10"/>
<path d="M1834.57 36.413L1876.02 17.9375" stroke="white" stroke-width="2.69641" stroke-miterlimit="10"/>
<path d="M1837.83 27.9082L1879.28 9.43262" stroke="white" stroke-width="2.74844" stroke-miterlimit="10"/>
<path d="M1841.09 19.4013L1882.54 0.925781" stroke="white" stroke-width="2.80046" stroke-miterlimit="10"/>
</g>
</g>
</g>
<mask id="mask1_260_1654" style="mask-type:alpha" maskUnits="userSpaceOnUse" x="0" y="0" width="243" height="453">
<rect width="243" height="453" transform="matrix(1 0 0 -1 0 453)" fill="#D9D9D9"/>
</mask>
<g mask="url(#mask1_260_1654)">
<g opacity="0.8">
<g opacity="0.5">
<path d="M-3.23539 -0.200145L38.2145 18.2754" stroke="white" stroke-width="0.148077" stroke-miterlimit="10"/>
<path d="M0.025841 8.30669L41.4757 26.7822" stroke="white" stroke-width="0.200104" stroke-miterlimit="10"/>
<path d="M3.28707 16.8116L44.7369 35.2871" stroke="white" stroke-width="0.252132" stroke-miterlimit="10"/>
<path d="M6.54855 25.3184L47.9984 43.7939" stroke="white" stroke-width="0.304159" stroke-miterlimit="10"/>
<path d="M9.80929 33.8233L51.2592 52.2988" stroke="white" stroke-width="0.356186" stroke-miterlimit="10"/>
<path d="M13.0708 42.3301L54.5206 60.8057" stroke="white" stroke-width="0.408213" stroke-miterlimit="10"/>
<path d="M16.332 50.835L57.7819 69.3105" stroke="white" stroke-width="0.46024" stroke-miterlimit="10"/>
<path d="M19.5935 59.3409L61.0433 77.8164" stroke="white" stroke-width="0.512267" stroke-miterlimit="10"/>
<path d="M22.8547 67.8467L64.3046 86.3223" stroke="white" stroke-width="0.564295" stroke-miterlimit="10"/>
<path d="M26.1164 76.3526L67.5663 94.8281" stroke="white" stroke-width="0.616322" stroke-miterlimit="10"/>
<path d="M29.3779 84.8584L70.8278 103.334" stroke="white" stroke-width="0.668349" stroke-miterlimit="10"/>
<path d="M32.6391 93.3643L74.089 111.84" stroke="white" stroke-width="0.720376" stroke-miterlimit="10"/>
<path d="M35.9006 101.87L77.3505 120.346" stroke="white" stroke-width="0.772403" stroke-miterlimit="10"/>
<path d="M39.1618 110.376L80.6117 128.852" stroke="white" stroke-width="0.82443" stroke-miterlimit="10"/>
<path d="M42.4233 118.882L83.8732 137.357" stroke="white" stroke-width="0.876458" stroke-miterlimit="10"/>
<path d="M45.6845 127.388L87.1344 145.863" stroke="white" stroke-width="0.928485" stroke-miterlimit="10"/>
<path d="M48.946 135.894L90.3959 154.369" stroke="white" stroke-width="0.980512" stroke-miterlimit="10"/>
<path d="M52.2072 144.399L93.6571 162.875" stroke="white" stroke-width="1.03254" stroke-miterlimit="10"/>
<path d="M55.4687 152.905L96.9186 171.381" stroke="white" stroke-width="1.08457" stroke-miterlimit="10"/>
<path d="M58.7299 161.411L100.18 179.887" stroke="white" stroke-width="1.13659" stroke-miterlimit="10"/>
<path d="M61.9914 169.917L103.441 188.393" stroke="white" stroke-width="1.18862" stroke-miterlimit="10"/>
<path d="M65.2529 178.423L106.703 196.898" stroke="white" stroke-width="1.24065" stroke-miterlimit="10"/>
<path d="M68.5141 186.929L109.964 205.404" stroke="white" stroke-width="1.29268" stroke-miterlimit="10"/>
<path d="M71.7756 195.435L113.225 213.91" stroke="white" stroke-width="1.3447" stroke-miterlimit="10"/>
<path d="M75.0368 203.94L116.487 222.416" stroke="white" stroke-width="1.39673" stroke-miterlimit="10"/>
<path d="M78.2976 212.446L119.747 230.922" stroke="white" stroke-width="1.44876" stroke-miterlimit="10"/>
<path d="M81.559 220.952L123.009 239.428" stroke="white" stroke-width="1.50078" stroke-miterlimit="10"/>
<path d="M84.8205 229.458L126.27 247.934" stroke="white" stroke-width="1.55281" stroke-miterlimit="10"/>
<path d="M88.082 237.964L129.532 256.439" stroke="white" stroke-width="1.60484" stroke-miterlimit="10"/>
<path d="M91.3432 246.469L132.793 264.944" stroke="white" stroke-width="1.65687" stroke-miterlimit="10"/>
<path d="M94.6047 254.976L136.055 273.451" stroke="white" stroke-width="1.70889" stroke-miterlimit="10"/>
<path d="M97.8662 263.481L139.316 281.957" stroke="white" stroke-width="1.76092" stroke-miterlimit="10"/>
<path d="M101.127 271.987L142.577 290.463" stroke="white" stroke-width="1.81295" stroke-miterlimit="10"/>
<path d="M104.389 280.493L145.839 298.969" stroke="white" stroke-width="1.86397" stroke-miterlimit="10"/>
<path d="M107.65 288.999L149.1 307.475" stroke="white" stroke-width="1.916" stroke-miterlimit="10"/>
<path d="M110.912 297.505L152.361 315.98" stroke="white" stroke-width="1.96803" stroke-miterlimit="10"/>
<path d="M114.173 306.011L155.623 324.486" stroke="white" stroke-width="2.02005" stroke-miterlimit="10"/>
<path d="M117.434 314.517L158.884 332.992" stroke="white" stroke-width="2.07208" stroke-miterlimit="10"/>
<path d="M120.696 323.023L162.146 341.498" stroke="white" stroke-width="2.12411" stroke-miterlimit="10"/>
<path d="M123.957 331.528L165.407 350.004" stroke="white" stroke-width="2.17614" stroke-miterlimit="10"/>
<path d="M127.218 340.034L168.668 358.51" stroke="white" stroke-width="2.22816" stroke-miterlimit="10"/>
<path d="M130.48 348.54L171.929 367.016" stroke="white" stroke-width="2.28019" stroke-miterlimit="10"/>
<path d="M133.741 357.046L175.191 375.521" stroke="white" stroke-width="2.33222" stroke-miterlimit="10"/>
<path d="M137.002 365.552L178.452 384.027" stroke="white" stroke-width="2.38424" stroke-miterlimit="10"/>
<path d="M140.264 374.059L181.714 392.534" stroke="white" stroke-width="2.43627" stroke-miterlimit="10"/>
<path d="M143.525 382.564L184.975 401.039" stroke="white" stroke-width="2.4883" stroke-miterlimit="10"/>
<path d="M146.786 391.069L188.236 409.545" stroke="white" stroke-width="2.54033" stroke-miterlimit="10"/>
<path d="M150.047 399.575L191.497 418.051" stroke="white" stroke-width="2.59235" stroke-miterlimit="10"/>
<path d="M153.309 408.081L194.759 426.557" stroke="white" stroke-width="2.64438" stroke-miterlimit="10"/>
<path d="M156.57 416.587L198.02 435.062" stroke="white" stroke-width="2.69641" stroke-miterlimit="10"/>
<path d="M159.832 425.092L201.281 443.567" stroke="white" stroke-width="2.74844" stroke-miterlimit="10"/>
<path d="M163.093 433.599L204.543 452.074" stroke="white" stroke-width="2.80046" stroke-miterlimit="10"/>
</g>
</g>
</g>
</svg>
