<svg width="187" height="64" viewBox="0 0 187 64" fill="none" xmlns="http://www.w3.org/2000/svg">
<rect width="187" height="64" rx="4" fill="#172121"/>
<path d="M68.802 47.21H63.33L62.322 50H60.594L65.13 37.526H67.02L71.538 50H69.81L68.802 47.21ZM68.334 45.878L66.066 39.542L63.798 45.878H68.334ZM75.1529 41.954C75.4769 41.39 75.9569 40.922 76.5929 40.55C77.2409 40.166 77.9909 39.974 78.8429 39.974C79.7189 39.974 80.5109 40.184 81.2189 40.604C81.9389 41.024 82.5029 41.618 82.9109 42.386C83.3189 43.142 83.5229 44.024 83.5229 45.032C83.5229 46.028 83.3189 46.916 82.9109 47.696C82.5029 48.476 81.9389 49.082 81.2189 49.514C80.5109 49.946 79.7189 50.162 78.8429 50.162C78.0029 50.162 77.2589 49.976 76.6109 49.604C75.9749 49.22 75.4889 48.746 75.1529 48.182V54.68H73.5149V40.136H75.1529V41.954ZM81.8489 45.032C81.8489 44.288 81.6989 43.64 81.3989 43.088C81.0989 42.536 80.6909 42.116 80.1749 41.828C79.6709 41.54 79.1129 41.396 78.5009 41.396C77.9009 41.396 77.3429 41.546 76.8269 41.846C76.3229 42.134 75.9149 42.56 75.6029 43.124C75.3029 43.676 75.1529 44.318 75.1529 45.05C75.1529 45.794 75.3029 46.448 75.6029 47.012C75.9149 47.564 76.3229 47.99 76.8269 48.29C77.3429 48.578 77.9009 48.722 78.5009 48.722C79.1129 48.722 79.6709 48.578 80.1749 48.29C80.6909 47.99 81.0989 47.564 81.3989 47.012C81.6989 46.448 81.8489 45.788 81.8489 45.032ZM87.317 41.954C87.641 41.39 88.121 40.922 88.757 40.55C89.405 40.166 90.155 39.974 91.007 39.974C91.883 39.974 92.675 40.184 93.383 40.604C94.103 41.024 94.667 41.618 95.075 42.386C95.483 43.142 95.687 44.024 95.687 45.032C95.687 46.028 95.483 46.916 95.075 47.696C94.667 48.476 94.103 49.082 93.383 49.514C92.675 49.946 91.883 50.162 91.007 50.162C90.167 50.162 89.423 49.976 88.775 49.604C88.139 49.22 87.653 48.746 87.317 48.182V54.68H85.679V40.136H87.317V41.954ZM94.013 45.032C94.013 44.288 93.863 43.64 93.563 43.088C93.263 42.536 92.855 42.116 92.339 41.828C91.835 41.54 91.277 41.396 90.665 41.396C90.065 41.396 89.507 41.546 88.991 41.846C88.487 42.134 88.079 42.56 87.767 43.124C87.467 43.676 87.317 44.318 87.317 45.05C87.317 45.794 87.467 46.448 87.767 47.012C88.079 47.564 88.487 47.99 88.991 48.29C89.507 48.578 90.065 48.722 90.665 48.722C91.277 48.722 91.835 48.578 92.339 48.29C92.855 47.99 93.263 47.564 93.563 47.012C93.863 46.448 94.013 45.788 94.013 45.032ZM106.62 50.126C105.792 50.126 105.048 49.982 104.388 49.694C103.74 49.394 103.23 48.986 102.858 48.47C102.486 47.942 102.294 47.336 102.282 46.652H104.028C104.088 47.24 104.328 47.738 104.748 48.146C105.18 48.542 105.804 48.74 106.62 48.74C107.4 48.74 108.012 48.548 108.456 48.164C108.912 47.768 109.14 47.264 109.14 46.652C109.14 46.172 109.008 45.782 108.744 45.482C108.48 45.182 108.15 44.954 107.754 44.798C107.358 44.642 106.824 44.474 106.152 44.294C105.324 44.078 104.658 43.862 104.154 43.646C103.662 43.43 103.236 43.094 102.876 42.638C102.528 42.17 102.354 41.546 102.354 40.766C102.354 40.082 102.528 39.476 102.876 38.948C103.224 38.42 103.71 38.012 104.334 37.724C104.97 37.436 105.696 37.292 106.512 37.292C107.688 37.292 108.648 37.586 109.392 38.174C110.148 38.762 110.574 39.542 110.67 40.514H108.87C108.81 40.034 108.558 39.614 108.114 39.254C107.67 38.882 107.082 38.696 106.35 38.696C105.666 38.696 105.108 38.876 104.676 39.236C104.244 39.584 104.028 40.076 104.028 40.712C104.028 41.168 104.154 41.54 104.406 41.828C104.67 42.116 104.988 42.338 105.36 42.494C105.744 42.638 106.278 42.806 106.962 42.998C107.79 43.226 108.456 43.454 108.96 43.682C109.464 43.898 109.896 44.24 110.256 44.708C110.616 45.164 110.796 45.788 110.796 46.58C110.796 47.192 110.634 47.768 110.31 48.308C109.986 48.848 109.506 49.286 108.87 49.622C108.234 49.958 107.484 50.126 106.62 50.126ZM115.204 41.486V47.3C115.204 47.78 115.306 48.122 115.51 48.326C115.714 48.518 116.068 48.614 116.572 48.614H117.778V50H116.302C115.39 50 114.706 49.79 114.25 49.37C113.794 48.95 113.566 48.26 113.566 47.3V41.486H112.288V40.136H113.566V37.652H115.204V40.136H117.778V41.486H115.204ZM124.065 50.162C123.141 50.162 122.301 49.952 121.545 49.532C120.801 49.112 120.213 48.518 119.781 47.75C119.361 46.97 119.151 46.07 119.151 45.05C119.151 44.042 119.367 43.154 119.799 42.386C120.243 41.606 120.843 41.012 121.599 40.604C122.355 40.184 123.201 39.974 124.137 39.974C125.073 39.974 125.919 40.184 126.675 40.604C127.431 41.012 128.025 41.6 128.457 42.368C128.901 43.136 129.123 44.03 129.123 45.05C129.123 46.07 128.895 46.97 128.439 47.75C127.995 48.518 127.389 49.112 126.621 49.532C125.853 49.952 125.001 50.162 124.065 50.162ZM124.065 48.722C124.653 48.722 125.205 48.584 125.721 48.308C126.237 48.032 126.651 47.618 126.963 47.066C127.287 46.514 127.449 45.842 127.449 45.05C127.449 44.258 127.293 43.586 126.981 43.034C126.669 42.482 126.261 42.074 125.757 41.81C125.253 41.534 124.707 41.396 124.119 41.396C123.519 41.396 122.967 41.534 122.463 41.81C121.971 42.074 121.575 42.482 121.275 43.034C120.975 43.586 120.825 44.258 120.825 45.05C120.825 45.854 120.969 46.532 121.257 47.084C121.557 47.636 121.953 48.05 122.445 48.326C122.937 48.59 123.477 48.722 124.065 48.722ZM132.915 41.738C133.203 41.174 133.611 40.736 134.139 40.424C134.679 40.112 135.333 39.956 136.101 39.956V41.648H135.669C133.833 41.648 132.915 42.644 132.915 44.636V50H131.277V40.136H132.915V41.738ZM146.991 44.69C146.991 45.002 146.973 45.332 146.937 45.68H139.053C139.113 46.652 139.443 47.414 140.043 47.966C140.655 48.506 141.393 48.776 142.257 48.776C142.965 48.776 143.553 48.614 144.021 48.29C144.501 47.954 144.837 47.51 145.029 46.958H146.793C146.529 47.906 146.001 48.68 145.209 49.28C144.417 49.868 143.433 50.162 142.257 50.162C141.321 50.162 140.481 49.952 139.737 49.532C139.005 49.112 138.429 48.518 138.009 47.75C137.589 46.97 137.379 46.07 137.379 45.05C137.379 44.03 137.583 43.136 137.991 42.368C138.399 41.6 138.969 41.012 139.701 40.604C140.445 40.184 141.297 39.974 142.257 39.974C143.193 39.974 144.021 40.178 144.741 40.586C145.461 40.994 146.013 41.558 146.397 42.278C146.793 42.986 146.991 43.79 146.991 44.69ZM145.299 44.348C145.299 43.724 145.161 43.19 144.885 42.746C144.609 42.29 144.231 41.948 143.751 41.72C143.283 41.48 142.761 41.36 142.185 41.36C141.357 41.36 140.649 41.624 140.061 42.152C139.485 42.68 139.155 43.412 139.071 44.348H145.299Z" fill="white"/>
<path d="M60.602 18.114C60.602 17.162 60.8167 16.308 61.246 15.552C61.6753 14.7867 62.2587 14.1893 62.996 13.76C63.7427 13.3307 64.5687 13.116 65.474 13.116C66.538 13.116 67.4667 13.3727 68.26 13.886C69.0533 14.3993 69.632 15.1273 69.996 16.07H68.47C68.1993 15.482 67.8073 15.0293 67.294 14.712C66.79 14.3947 66.1833 14.236 65.474 14.236C64.7927 14.236 64.1813 14.3947 63.64 14.712C63.0987 15.0293 62.674 15.482 62.366 16.07C62.058 16.6487 61.904 17.33 61.904 18.114C61.904 18.8887 62.058 19.57 62.366 20.158C62.674 20.7367 63.0987 21.1847 63.64 21.502C64.1813 21.8193 64.7927 21.978 65.474 21.978C66.1833 21.978 66.79 21.824 67.294 21.516C67.8073 21.1987 68.1993 20.746 68.47 20.158H69.996C69.632 21.0913 69.0533 21.8147 68.26 22.328C67.4667 22.832 66.538 23.084 65.474 23.084C64.5687 23.084 63.7427 22.874 62.996 22.454C62.2587 22.0247 61.6753 21.432 61.246 20.676C60.8167 19.92 60.602 19.066 60.602 18.114ZM75.2385 23.126C74.5198 23.126 73.8665 22.9627 73.2785 22.636C72.6998 22.3093 72.2425 21.8473 71.9065 21.25C71.5798 20.6433 71.4165 19.9433 71.4165 19.15C71.4165 18.366 71.5845 17.6753 71.9205 17.078C72.2658 16.4713 72.7325 16.0093 73.3205 15.692C73.9085 15.3653 74.5665 15.202 75.2945 15.202C76.0225 15.202 76.6805 15.3653 77.2685 15.692C77.8565 16.0093 78.3185 16.4667 78.6545 17.064C78.9998 17.6613 79.1725 18.3567 79.1725 19.15C79.1725 19.9433 78.9951 20.6433 78.6405 21.25C78.2951 21.8473 77.8238 22.3093 77.2265 22.636C76.6291 22.9627 75.9665 23.126 75.2385 23.126ZM75.2385 22.006C75.6958 22.006 76.1251 21.8987 76.5265 21.684C76.9278 21.4693 77.2498 21.1473 77.4925 20.718C77.7445 20.2887 77.8705 19.766 77.8705 19.15C77.8705 18.534 77.7491 18.0113 77.5065 17.582C77.2638 17.1527 76.9465 16.8353 76.5545 16.63C76.1625 16.4153 75.7378 16.308 75.2805 16.308C74.8138 16.308 74.3845 16.4153 73.9925 16.63C73.6098 16.8353 73.3018 17.1527 73.0685 17.582C72.8351 18.0113 72.7185 18.534 72.7185 19.15C72.7185 19.7753 72.8305 20.3027 73.0545 20.732C73.2878 21.1613 73.5958 21.4833 73.9785 21.698C74.3611 21.9033 74.7811 22.006 75.2385 22.006ZM90.0735 15.188C90.6709 15.188 91.2029 15.314 91.6695 15.566C92.1362 15.8087 92.5049 16.1773 92.7755 16.672C93.0462 17.1667 93.1815 17.7687 93.1815 18.478V23H91.9215V18.66C91.9215 17.8947 91.7302 17.3113 91.3475 16.91C90.9742 16.4993 90.4655 16.294 89.8215 16.294C89.1589 16.294 88.6315 16.5087 88.2395 16.938C87.8475 17.358 87.6515 17.9693 87.6515 18.772V23H86.3915V18.66C86.3915 17.8947 86.2002 17.3113 85.8175 16.91C85.4442 16.4993 84.9355 16.294 84.2915 16.294C83.6289 16.294 83.1015 16.5087 82.7095 16.938C82.3175 17.358 82.1215 17.9693 82.1215 18.772V23H80.8475V15.328H82.1215V16.434C82.3735 16.0327 82.7095 15.7247 83.1295 15.51C83.5589 15.2953 84.0302 15.188 84.5435 15.188C85.1875 15.188 85.7569 15.3327 86.2515 15.622C86.7462 15.9113 87.1149 16.336 87.3575 16.896C87.5722 16.3547 87.9269 15.9347 88.4215 15.636C88.9162 15.3373 89.4669 15.188 90.0735 15.188ZM95.9294 14.082C95.6867 14.082 95.4814 13.998 95.3134 13.83C95.1454 13.662 95.0614 13.4567 95.0614 13.214C95.0614 12.9713 95.1454 12.766 95.3134 12.598C95.4814 12.43 95.6867 12.346 95.9294 12.346C96.1627 12.346 96.3587 12.43 96.5174 12.598C96.6854 12.766 96.7694 12.9713 96.7694 13.214C96.7694 13.4567 96.6854 13.662 96.5174 13.83C96.3587 13.998 96.1627 14.082 95.9294 14.082ZM96.5454 15.328V23H95.2714V15.328H96.5454ZM102.455 15.188C103.388 15.188 104.144 15.4727 104.723 16.042C105.301 16.602 105.591 17.414 105.591 18.478V23H104.331V18.66C104.331 17.8947 104.139 17.3113 103.757 16.91C103.374 16.4993 102.851 16.294 102.189 16.294C101.517 16.294 100.98 16.504 100.579 16.924C100.187 17.344 99.9907 17.9553 99.9907 18.758V23H98.7167V15.328H99.9907V16.42C100.243 16.028 100.583 15.7247 101.013 15.51C101.451 15.2953 101.932 15.188 102.455 15.188ZM110.836 15.202C111.498 15.202 112.077 15.3467 112.572 15.636C113.076 15.9253 113.449 16.2893 113.692 16.728V15.328H114.98V23.168C114.98 23.868 114.83 24.4887 114.532 25.03C114.233 25.5807 113.804 26.01 113.244 26.318C112.693 26.626 112.049 26.78 111.312 26.78C110.304 26.78 109.464 26.542 108.792 26.066C108.12 25.59 107.723 24.9413 107.602 24.12H108.862C109.002 24.5867 109.291 24.96 109.73 25.24C110.168 25.5293 110.696 25.674 111.312 25.674C112.012 25.674 112.581 25.4547 113.02 25.016C113.468 24.5773 113.692 23.9613 113.692 23.168V21.558C113.44 22.006 113.066 22.3793 112.572 22.678C112.077 22.9767 111.498 23.126 110.836 23.126C110.154 23.126 109.534 22.958 108.974 22.622C108.423 22.286 107.989 21.8147 107.672 21.208C107.354 20.6013 107.196 19.9107 107.196 19.136C107.196 18.352 107.354 17.666 107.672 17.078C107.989 16.4807 108.423 16.0187 108.974 15.692C109.534 15.3653 110.154 15.202 110.836 15.202ZM113.692 19.15C113.692 18.5713 113.575 18.0673 113.342 17.638C113.108 17.2087 112.791 16.882 112.39 16.658C111.998 16.4247 111.564 16.308 111.088 16.308C110.612 16.308 110.178 16.42 109.786 16.644C109.394 16.868 109.081 17.1947 108.848 17.624C108.614 18.0533 108.498 18.5573 108.498 19.136C108.498 19.724 108.614 20.2373 108.848 20.676C109.081 21.1053 109.394 21.4367 109.786 21.67C110.178 21.894 110.612 22.006 111.088 22.006C111.564 22.006 111.998 21.894 112.39 21.67C112.791 21.4367 113.108 21.1053 113.342 20.676C113.575 20.2373 113.692 19.7287 113.692 19.15ZM123.959 23.098C123.315 23.098 122.736 22.986 122.223 22.762C121.719 22.5287 121.322 22.2113 121.033 21.81C120.744 21.3993 120.594 20.928 120.585 20.396H121.943C121.99 20.8533 122.176 21.2407 122.503 21.558C122.839 21.866 123.324 22.02 123.959 22.02C124.566 22.02 125.042 21.8707 125.387 21.572C125.742 21.264 125.919 20.872 125.919 20.396C125.919 20.0227 125.816 19.7193 125.611 19.486C125.406 19.2527 125.149 19.0753 124.841 18.954C124.533 18.8327 124.118 18.702 123.595 18.562C122.951 18.394 122.433 18.226 122.041 18.058C121.658 17.89 121.327 17.6287 121.047 17.274C120.776 16.91 120.641 16.4247 120.641 15.818C120.641 15.286 120.776 14.8147 121.047 14.404C121.318 13.9933 121.696 13.676 122.181 13.452C122.676 13.228 123.24 13.116 123.875 13.116C124.79 13.116 125.536 13.3447 126.115 13.802C126.703 14.2593 127.034 14.866 127.109 15.622H125.709C125.662 15.2487 125.466 14.922 125.121 14.642C124.776 14.3527 124.318 14.208 123.749 14.208C123.217 14.208 122.783 14.348 122.447 14.628C122.111 14.8987 121.943 15.2813 121.943 15.776C121.943 16.1307 122.041 16.42 122.237 16.644C122.442 16.868 122.69 17.0407 122.979 17.162C123.278 17.274 123.693 17.4047 124.225 17.554C124.869 17.7313 125.387 17.9087 125.779 18.086C126.171 18.254 126.507 18.52 126.787 18.884C127.067 19.2387 127.207 19.724 127.207 20.34C127.207 20.816 127.081 21.264 126.829 21.684C126.577 22.104 126.204 22.4447 125.709 22.706C125.214 22.9673 124.631 23.098 123.959 23.098ZM132.428 23.126C131.709 23.126 131.056 22.9627 130.468 22.636C129.889 22.3093 129.432 21.8473 129.096 21.25C128.769 20.6433 128.606 19.9433 128.606 19.15C128.606 18.366 128.774 17.6753 129.11 17.078C129.455 16.4713 129.922 16.0093 130.51 15.692C131.098 15.3653 131.756 15.202 132.484 15.202C133.212 15.202 133.87 15.3653 134.458 15.692C135.046 16.0093 135.508 16.4667 135.844 17.064C136.189 17.6613 136.362 18.3567 136.362 19.15C136.362 19.9433 136.185 20.6433 135.83 21.25C135.485 21.8473 135.013 22.3093 134.416 22.636C133.819 22.9627 133.156 23.126 132.428 23.126ZM132.428 22.006C132.885 22.006 133.315 21.8987 133.716 21.684C134.117 21.4693 134.439 21.1473 134.682 20.718C134.934 20.2887 135.06 19.766 135.06 19.15C135.06 18.534 134.939 18.0113 134.696 17.582C134.453 17.1527 134.136 16.8353 133.744 16.63C133.352 16.4153 132.927 16.308 132.47 16.308C132.003 16.308 131.574 16.4153 131.182 16.63C130.799 16.8353 130.491 17.1527 130.258 17.582C130.025 18.0113 129.908 18.534 129.908 19.15C129.908 19.7753 130.02 20.3027 130.244 20.732C130.477 21.1613 130.785 21.4833 131.168 21.698C131.551 21.9033 131.971 22.006 132.428 22.006ZM141.383 23.126C140.664 23.126 140.011 22.9627 139.423 22.636C138.844 22.3093 138.387 21.8473 138.051 21.25C137.724 20.6433 137.561 19.9433 137.561 19.15C137.561 18.366 137.729 17.6753 138.065 17.078C138.41 16.4713 138.877 16.0093 139.465 15.692C140.053 15.3653 140.711 15.202 141.439 15.202C142.167 15.202 142.825 15.3653 143.413 15.692C144.001 16.0093 144.463 16.4667 144.799 17.064C145.144 17.6613 145.317 18.3567 145.317 19.15C145.317 19.9433 145.14 20.6433 144.785 21.25C144.44 21.8473 143.968 22.3093 143.371 22.636C142.774 22.9627 142.111 23.126 141.383 23.126ZM141.383 22.006C141.84 22.006 142.27 21.8987 142.671 21.684C143.072 21.4693 143.394 21.1473 143.637 20.718C143.889 20.2887 144.015 19.766 144.015 19.15C144.015 18.534 143.894 18.0113 143.651 17.582C143.408 17.1527 143.091 16.8353 142.699 16.63C142.307 16.4153 141.882 16.308 141.425 16.308C140.958 16.308 140.529 16.4153 140.137 16.63C139.754 16.8353 139.446 17.1527 139.213 17.582C138.98 18.0113 138.863 18.534 138.863 19.15C138.863 19.7753 138.975 20.3027 139.199 20.732C139.432 21.1613 139.74 21.4833 140.123 21.698C140.506 21.9033 140.926 22.006 141.383 22.006ZM150.73 15.188C151.663 15.188 152.419 15.4727 152.998 16.042C153.577 16.602 153.866 17.414 153.866 18.478V23H152.606V18.66C152.606 17.8947 152.415 17.3113 152.032 16.91C151.649 16.4993 151.127 16.294 150.464 16.294C149.792 16.294 149.255 16.504 148.854 16.924C148.462 17.344 148.266 17.9553 148.266 18.758V23H146.992V15.328H148.266V16.42C148.518 16.028 148.859 15.7247 149.288 15.51C149.727 15.2953 150.207 15.188 150.73 15.188Z" fill="white"/>
<g clip-path="url(#clip0_75_1531)">
<path d="M36.2948 45.3333C35.6757 45.3173 35.0698 45.1507 34.5294 44.848C33.7058 44.4113 32.7856 44.1889 31.8534 44.2013C30.924 44.1924 30.0064 44.4102 29.1801 44.836C28.5997 45.1497 27.953 45.3206 27.2934 45.3347C25.8268 45.3347 23.9828 43.8133 22.4868 41.3627C20.9255 38.8472 20.0655 35.9598 19.9961 33C19.9425 31.3467 20.3536 29.7114 21.1828 28.28C21.7572 27.3037 22.5643 26.4848 23.5321 25.8962C24.4999 25.3076 25.5983 24.9676 26.7294 24.9067C27.6926 24.942 28.6414 25.1521 29.5294 25.5267C30.2417 25.8349 31.0026 26.0154 31.7774 26.06C32.4731 26.0283 33.156 25.8616 33.7881 25.5693C34.7427 25.1465 35.7735 24.9229 36.8174 24.912C39.2694 24.912 41.5641 26.6627 41.5641 27.4587C41.5641 27.7093 41.2974 27.96 40.9268 28.3067C40.2742 28.8311 39.7515 29.499 39.3992 30.2585C39.047 31.0179 38.8748 31.8485 38.8961 32.6853C38.8852 33.7697 39.1732 34.8361 39.7285 35.7675C40.2838 36.6989 41.085 37.4593 42.0441 37.9653C42.1622 38.019 42.2625 38.1052 42.3333 38.2138C42.4041 38.3225 42.4426 38.449 42.4441 38.5787C42.4548 38.648 39.6641 45.3333 36.2948 45.3333ZM31.5868 24.9267C31.4952 24.9267 31.4046 24.9085 31.3201 24.8732C31.2356 24.838 31.159 24.7863 31.0946 24.7212C31.0302 24.6561 30.9794 24.5788 30.9451 24.494C30.9108 24.4091 30.8937 24.3182 30.8948 24.2267C30.9487 22.9525 31.4168 21.7307 32.2281 20.7467C33.0831 19.728 34.2342 19.001 35.5214 18.6667C35.623 18.642 35.729 18.6412 35.831 18.6641C35.933 18.6871 36.0283 18.7332 36.1096 18.799C36.1908 18.8648 36.2558 18.9484 36.2995 19.0434C36.3432 19.1384 36.3644 19.2422 36.3614 19.3467C36.2915 20.6256 35.8256 21.8511 35.0281 22.8533C34.2095 23.9354 33.0148 24.671 31.6801 24.9147C31.6493 24.9208 31.6181 24.9248 31.5868 24.9267Z" fill="#F2F2F2"/>
</g>
<defs>
<clipPath id="clip0_75_1531">
<rect width="32" height="32" fill="white" transform="translate(16 16)"/>
</clipPath>
</defs>
</svg>
