<svg width="1920" height="1384" viewBox="0 0 1920 1384" fill="none" xmlns="http://www.w3.org/2000/svg">
<rect width="1920" height="1384" fill="white"/>
<rect width="1920" height="944" fill="#2593F7"/>
<mask id="mask0_260_1280" style="mask-type:alpha" maskUnits="userSpaceOnUse" x="495" y="464" width="931" height="480">
<rect x="495" y="464" width="931" height="480" fill="#D9D9D9"/>
</mask>
<g mask="url(#mask0_260_1280)">
<g opacity="0.8">
<g opacity="0.5">
<path d="M797.164 927.942C797.164 897.33 806.242 867.405 823.25 841.951C840.257 816.498 864.431 796.66 892.713 784.945C920.995 773.231 952.116 770.166 982.141 776.139C1012.16 782.111 1039.74 796.853 1061.39 818.499C1083.04 840.146 1097.78 867.725 1103.75 897.749C1109.72 927.774 1106.65 958.895 1094.94 987.177C1083.22 1015.46 1063.39 1039.63 1037.93 1056.64C1012.48 1073.65 982.553 1082.72 951.94 1082.72C931.614 1082.72 911.487 1078.72 892.709 1070.94C873.93 1063.16 856.868 1051.76 842.495 1037.39C828.123 1023.02 816.722 1005.95 808.944 987.174C801.166 968.395 797.163 948.268 797.164 927.942V927.942Z" stroke="white" stroke-width="2" stroke-miterlimit="10"/>
<path d="M1139.33 973.057C1164.25 869.522 1100.52 765.384 996.989 740.458C893.453 715.533 789.315 779.259 764.39 882.795C739.465 986.331 803.191 1090.47 906.727 1115.39C1010.26 1140.32 1114.4 1076.59 1139.33 973.057Z" stroke="white" stroke-width="1.79559" stroke-miterlimit="10"/>
<path d="M1176.47 982.047C1206.35 858.043 1130.05 733.295 1006.04 703.414C882.041 673.533 757.292 749.836 727.412 873.84C697.531 997.844 773.833 1122.59 897.838 1152.47C1021.84 1182.35 1146.59 1106.05 1176.47 982.047Z" stroke="white" stroke-width="1.592" stroke-miterlimit="10"/>
<path d="M1213.5 990.969C1248.31 846.515 1159.42 701.194 1014.97 666.386C870.513 631.577 725.192 720.463 690.383 864.917C655.575 1009.37 744.461 1154.69 888.915 1189.5C1033.37 1224.31 1178.69 1135.42 1213.5 990.969Z" stroke="white" stroke-width="1.388" stroke-miterlimit="10"/>
<path d="M1250.58 999.645C1290.19 834.708 1188.58 668.897 1023.64 629.296C858.706 589.695 692.896 691.3 653.295 856.237C613.694 1021.17 715.299 1186.98 880.236 1226.59C1045.17 1266.19 1210.98 1164.58 1250.58 999.645Z" stroke="white" stroke-width="1.184" stroke-miterlimit="10"/>
<path d="M951.941 1273.16C1142.6 1273.16 1297.16 1118.6 1297.16 927.941C1297.16 737.281 1142.6 582.721 951.941 582.721C761.281 582.721 606.721 737.281 606.721 927.941C606.721 1118.6 761.281 1273.16 951.941 1273.16Z" stroke="white" stroke-width="0.98" stroke-miterlimit="10"/>
<path d="M951.94 1311.25C1163.64 1311.25 1335.25 1139.64 1335.25 927.941C1335.25 716.245 1163.64 544.632 951.94 544.632C740.244 544.632 568.631 716.245 568.631 927.941C568.631 1139.64 740.244 1311.25 951.94 1311.25Z" stroke="white" stroke-width="0.776" stroke-miterlimit="10"/>
<path d="M951.94 1349.34C1184.67 1349.34 1373.34 1160.67 1373.34 927.941C1373.34 695.21 1184.67 506.544 951.94 506.544C719.209 506.544 530.543 695.21 530.543 927.941C530.543 1160.67 719.209 1349.34 951.94 1349.34Z" stroke="white" stroke-width="0.572" stroke-miterlimit="10"/>
<path d="M951.94 1387.43C1205.71 1387.43 1411.43 1181.71 1411.43 927.941C1411.43 674.174 1205.71 468.456 951.94 468.456C698.174 468.456 492.455 674.174 492.455 927.941C492.455 1181.71 698.174 1387.43 951.94 1387.43Z" stroke="white" stroke-width="0.368" stroke-miterlimit="10"/>
</g>
</g>
</g>
</svg>
