<svg width="188" height="28" viewBox="0 0 188 28" fill="none" xmlns="http://www.w3.org/2000/svg">
<g clip-path="url(#clip0_102_13215)">
<path d="M20.672 2.728C19.9881 2.00859 19.1648 1.43596 18.2525 1.04501C17.3401 0.654059 16.3576 0.452971 15.365 0.453999H0V5.616H15.21C15.5505 5.60714 15.889 5.67087 16.203 5.80294C16.5169 5.93502 16.7992 6.13241 17.031 6.382C17.5106 6.88266 17.7723 7.55286 17.759 8.246C17.7273 8.91021 17.4481 9.5385 16.9763 10.0071C16.5045 10.4758 15.8744 10.7508 15.21 10.778H0V15.946H15.21C15.5489 15.9438 15.8844 16.014 16.194 16.152C16.5035 16.29 16.7801 16.4925 17.005 16.746C17.4903 17.2348 17.7619 17.8962 17.76 18.585C17.7583 18.9137 17.6907 19.2386 17.561 19.5406C17.4313 19.8426 17.2422 20.1155 17.005 20.343C16.7755 20.5884 16.4973 20.7833 16.1882 20.9151C15.8792 21.047 15.546 21.1131 15.21 21.109H0V26.283H15.365C17.359 26.2446 19.2615 25.4392 20.6769 24.0342C22.0924 22.6291 22.9119 20.7327 22.965 18.739V18.325C22.9575 16.4807 22.251 14.7079 20.988 13.364C22.3024 11.8886 23.0079 9.96942 22.962 7.994C22.9625 7.00601 22.7595 6.02852 22.3655 5.1225C21.9715 4.21647 21.395 3.40135 20.672 2.728Z" fill="black"/>
<path d="M42.414 11.174H31.146V8.485C31.1541 7.81258 31.4256 7.17018 31.9022 6.6958C32.3788 6.22142 33.0225 5.95292 33.695 5.948H46.363L50.014 0.782997H33.539C32.5485 0.780523 31.5678 0.978397 30.6558 1.36472C29.7438 1.75104 28.9193 2.31783 28.232 3.03099C27.5051 3.70838 26.9265 4.52908 26.5327 5.44129C26.1389 6.3535 25.9384 7.33743 25.944 8.331V19.08C25.9436 20.0685 26.1466 21.0465 26.5402 21.9533C26.9338 22.86 27.5096 23.6762 28.232 24.351C28.9155 25.0708 29.7387 25.6436 30.6512 26.0344C31.5637 26.4252 32.5463 26.6259 33.539 26.624H42.419C43.4109 26.6258 44.3928 26.426 45.3051 26.0366C46.2174 25.6473 47.0411 25.0765 47.726 24.359C48.4477 23.6871 49.0233 22.8738 49.417 21.9697C49.8106 21.0656 50.0138 20.0901 50.014 19.104V18.693C50.02 17.7048 49.8221 16.726 49.4325 15.8178C49.0429 14.9097 48.4701 14.0917 47.75 13.415C47.059 12.6996 46.23 12.1321 45.3131 11.7469C44.3961 11.3616 43.4105 11.1667 42.416 11.174H42.414ZM44.079 20.663C43.8509 20.919 43.5699 21.1226 43.2555 21.2595C42.9412 21.3964 42.6008 21.4634 42.258 21.456H33.69C33.026 21.4274 32.3966 21.152 31.9251 20.6836C31.4536 20.2153 31.174 19.5878 31.141 18.924V16.341H42.252C42.5857 16.3374 42.9167 16.4013 43.2252 16.5288C43.5336 16.6563 43.8132 16.8448 44.047 17.083C44.288 17.3092 44.4796 17.5829 44.6095 17.8869C44.7394 18.1908 44.805 18.5184 44.802 18.849C44.8054 19.5249 44.5462 20.1756 44.079 20.664V20.663Z" fill="black"/>
<path d="M66.325 27.073C63.6516 27.0558 61.0432 26.2474 58.8286 24.7496C56.6141 23.2518 54.8927 21.1318 53.8816 18.657C52.8704 16.1822 52.6147 13.4633 53.1468 10.8433C53.6788 8.22335 54.9748 5.81962 56.8713 3.93527C58.7678 2.05092 61.1797 0.770347 63.8031 0.25507C66.4264 -0.260207 69.1436 0.0128839 71.6119 1.0399C74.0802 2.06691 76.1891 3.80186 77.6727 6.02592C79.1562 8.24998 79.9479 10.8635 79.948 13.537C79.948 15.3219 79.595 17.0892 78.9094 18.7372C78.2237 20.3851 77.2188 21.8812 75.9527 23.1393C74.6865 24.3974 73.184 25.3926 71.5317 26.0677C69.8794 26.7428 68.1099 27.0845 66.325 27.073ZM66.325 22.455L74.101 17.997V9.07699L66.325 4.61699L58.55 9.07699V17.997L66.325 22.455Z" fill="#2593F7"/>
<path d="M91.4151 11.034H99.6411L98.8191 13.764H91.7861C91.3182 13.7745 90.8647 13.9282 90.4869 14.2045C90.109 14.4808 89.825 14.8663 89.6731 15.309C89.3648 16.0101 89.2107 16.7692 89.2211 17.535C89.1498 18.5971 89.4972 19.645 90.1891 20.454C90.3941 20.6719 90.6422 20.8447 90.9177 20.9613C91.1932 21.0779 91.49 21.1357 91.7891 21.131H99.6441L98.8211 23.857H91.4211C90.599 23.8795 89.785 23.6895 89.0578 23.3053C88.3306 22.9212 87.7149 22.3558 87.2701 21.664C86.4034 20.3919 85.9578 18.8798 85.9961 17.341C85.939 15.7503 86.4336 14.1887 87.3961 12.921C87.8716 12.3139 88.483 11.8269 89.181 11.4991C89.8791 11.1714 90.6443 11.0121 91.4151 11.034ZM103.254 17.454C103.254 19.2927 103.926 20.47 105.27 20.986C106.047 21.2564 106.867 21.3822 107.689 21.357C109.98 21.357 111.361 20.572 111.834 19.002C111.969 18.4972 112.034 17.9764 112.028 17.454C112.028 15.3573 111.125 14.1047 109.318 13.696C108.783 13.5833 108.236 13.5293 107.689 13.535C105.614 13.535 104.275 14.1263 103.673 15.309C103.373 15.983 103.23 16.7165 103.255 17.454H103.254ZM115.254 17.454C115.326 18.5535 115.091 19.6514 114.576 20.6252C114.06 21.5991 113.285 22.4109 112.335 22.97C110.868 23.786 109.206 24.1873 107.528 24.131C105.508 24.2407 103.523 23.5726 101.98 22.264C101.327 21.6513 100.814 20.9043 100.477 20.0745C100.14 19.2447 99.987 18.3517 100.028 17.457C99.968 16.4096 100.18 15.3644 100.643 14.4232C101.107 13.482 101.806 12.6768 102.673 12.086C104.121 11.1657 105.814 10.7049 107.529 10.764C109.676 10.627 111.79 11.3396 113.416 12.748C114.035 13.3598 114.519 14.0948 114.836 14.9056C115.153 15.7163 115.295 16.5845 115.255 17.454H115.254ZM126.529 11.034H129.578V23.857H126.53L119.82 15.405V23.857H116.771V11.534L119.82 10.711L126.53 19.163L126.529 11.034ZM141.82 11.034H144.869V23.857H141.821L135.111 15.405V23.857H132.063V11.534L135.112 10.711L141.822 19.163L141.82 11.034ZM150.401 18.825V21.132H159.756L158.933 23.858H147.353V11.034H159.753L158.934 13.764H150.402V16.103H158.354V18.829L150.401 18.825ZM166.063 11.034H174.289L173.463 13.764H166.434C165.966 13.7747 165.512 13.9289 165.134 14.2057C164.756 14.4825 164.473 14.8687 164.321 15.312C164.013 16.0131 163.859 16.7722 163.869 17.538C163.798 18.6001 164.145 19.648 164.837 20.457C165.042 20.6749 165.29 20.8477 165.566 20.9643C165.841 21.0809 166.138 21.1387 166.437 21.134H174.292L173.463 23.857H166.063C165.242 23.8785 164.429 23.688 163.703 23.3039C162.977 22.9197 162.362 22.3549 161.918 21.664C161.051 20.3919 160.606 18.8798 160.644 17.341C160.587 15.7503 161.082 14.1887 162.044 12.921C162.52 12.3139 163.131 11.8269 163.829 11.4991C164.527 11.1714 165.292 11.0121 166.063 11.034ZM174.596 13.764V11.034H187.996L187.173 13.76H182.387V23.86H179.322V13.764H174.596Z" fill="black"/>
</g>
<defs>
<clipPath id="clip0_102_13215">
<rect width="188" height="27.073" fill="white"/>
</clipPath>
</defs>
</svg>
