<svg width="48" height="48" viewBox="0 0 48 48" fill="none" xmlns="http://www.w3.org/2000/svg">
<g clip-path="url(#clip0_75_2863)">
<path d="M3.89062 44.1085C3.89062 39.8484 5.58293 35.7629 8.59525 32.7505C11.6076 29.7382 15.6932 28.0459 19.9532 28.0459C24.2133 28.0459 28.2989 29.7382 31.3112 32.7505C34.3235 35.7629 36.0158 39.8484 36.0158 44.1085H31.9994C31.9994 42.5265 31.6878 40.96 31.0824 39.4984C30.477 38.0368 29.5896 36.7088 28.471 35.5901C27.3524 34.4715 26.0243 33.5841 24.5627 32.9787C23.1012 32.3733 21.5346 32.0617 19.9526 32.0617C18.3706 32.0617 16.8041 32.3733 15.3425 32.9787C13.8809 33.5841 12.5529 34.4715 11.4343 35.5901C10.3156 36.7088 9.42824 38.0368 8.82283 39.4984C8.21742 40.96 7.90583 42.5265 7.90583 44.1085H3.89062ZM19.9526 26.0389C17.57 26.0389 15.2409 25.3324 13.2598 24.0087C11.2787 22.6849 9.73463 20.8035 8.82283 18.6022C7.91104 16.401 7.67247 13.9788 8.1373 11.6419C8.60213 9.30505 9.74948 7.15852 11.4343 5.47374C13.119 3.78897 15.2656 2.64162 17.6024 2.17679C19.9393 1.71197 22.3615 1.95053 24.5627 2.86233C26.764 3.77412 28.6455 5.31819 29.9692 7.29927C31.2929 9.28036 31.9994 11.6095 31.9994 13.9921C31.9999 15.5743 31.6886 17.141 31.0834 18.6028C30.4781 20.0646 29.5908 21.3928 28.4721 22.5115C27.3533 23.6303 26.0251 24.5176 24.5633 25.1229C23.1015 25.7281 21.5348 26.0394 19.9526 26.0389ZM19.9526 22.0237C21.5411 22.0237 23.094 21.5527 24.4147 20.6701C25.7355 19.7876 26.765 18.5333 27.3729 17.0657C27.9807 15.5981 28.1398 13.9832 27.8299 12.4252C27.52 10.8673 26.7551 9.43616 25.6318 8.31292C24.5086 7.18968 23.0775 6.42474 21.5195 6.11484C19.9615 5.80494 18.3466 5.96399 16.8791 6.57189C15.4115 7.17978 14.1571 8.20921 13.2746 9.53C12.3921 10.8508 11.921 12.4036 11.921 13.9921C11.9207 15.0469 12.1282 16.0915 12.5318 17.0661C12.9353 18.0406 13.5269 18.9262 14.2727 19.672C15.0186 20.4179 15.9041 21.0095 16.8787 21.413C17.8533 21.8165 18.8978 22.024 19.9526 22.0237ZM36.5858 29.4637C39.4075 30.7345 41.8021 32.7931 43.4819 35.3921C45.1617 37.9911 46.0552 41.0199 46.055 44.1145H42.0386C42.039 41.793 41.3688 39.5209 40.1085 37.5713C38.8482 35.6217 37.0516 34.0777 34.9346 33.1249L36.5834 29.4637H36.5858ZM35.2046 6.78972C37.4889 7.73138 39.3915 9.41171 40.6083 11.5621C41.8251 13.7124 42.2859 16.2087 41.9169 18.6517C41.5478 21.0948 40.3704 23.3436 38.5728 25.0386C36.7752 26.7337 34.4611 27.7771 32.0006 28.0021V23.9605C33.4883 23.7474 34.8684 23.0629 35.9384 22.0076C37.0085 20.9524 37.712 19.5818 37.9457 18.0973C38.1795 16.6127 37.9311 15.0923 37.2371 13.7593C36.5431 12.4263 35.44 11.3509 34.0898 10.6909L35.2046 6.78972Z" fill="#2593F7"/>
</g>
<defs>
<clipPath id="clip0_75_2863">
<rect width="48" height="48" fill="white"/>
</clipPath>
</defs>
</svg>
