<svg width="48" height="48" viewBox="0 0 48 48" fill="none" xmlns="http://www.w3.org/2000/svg">
<g clip-path="url(#clip0_75_2877)">
<path d="M4.02344 8.01853C4.0272 7.49414 4.23711 6.99227 4.60781 6.62135C4.97851 6.25042 5.48025 6.04022 6.00464 6.03613H41.9938C42.5194 6.03645 43.0233 6.24545 43.3948 6.61719C43.7663 6.98893 43.975 7.49298 43.975 8.01853V39.9829C43.9713 40.5073 43.7614 41.0092 43.3907 41.3801C43.02 41.751 42.5182 41.9613 41.9938 41.9653H6.00464C5.47908 41.965 4.97516 41.756 4.60364 41.3843C4.23213 41.0125 4.02344 40.5085 4.02344 39.9829V8.01853ZM8.01824 10.0285V37.9729H39.9802V10.0285H8.01824ZM12.0142 14.0197H23.9998V25.9957H12.0142V14.0197ZM16.009 18.0121V22.0045H20.0038V18.0121H16.009ZM12.0142 29.9881H35.9854V33.9805H12.0142V29.9881ZM27.9946 14.0197H35.9854V18.0121H27.9946V14.0197ZM27.9946 22.0033H35.9854V25.9957H27.9946V22.0033Z" fill="#2593F7"/>
</g>
<defs>
<clipPath id="clip0_75_2877">
<rect width="48" height="48" fill="white"/>
</clipPath>
</defs>
</svg>
