<svg width="48" height="48" viewBox="0 0 48 48" fill="none" xmlns="http://www.w3.org/2000/svg">
<g clip-path="url(#clip0_75_2892)">
<path d="M22.0021 4.00342L36.5953 8.56342C37.0023 8.69035 37.3581 8.94408 37.6107 9.28756C37.8633 9.63103 37.9994 10.0463 37.9993 10.4726V14.0018H41.9989C42.2615 14.002 42.5216 14.0539 42.7641 14.1546C43.0067 14.2553 43.2271 14.4028 43.4126 14.5886C43.5982 14.7745 43.7453 14.9951 43.8455 15.2379C43.9458 15.4807 43.9972 15.7408 43.9969 16.0034V31.9994C43.9975 32.2624 43.9463 32.5228 43.8461 32.766C43.7459 33.0091 43.5987 33.23 43.413 33.4162C43.2273 33.6023 43.0067 33.75 42.7639 33.8508C42.521 33.9515 42.2606 34.0034 41.9977 34.0034H35.5585C34.7769 35.0341 33.8335 35.9313 32.7649 36.6602L22.0069 43.997L11.2441 36.6626C9.6295 35.5616 8.30825 34.0829 7.39518 32.355C6.48211 30.6272 6.00485 28.7025 6.00488 26.7482V10.4726C6.00474 10.0463 6.14091 9.63103 6.3935 9.28756C6.64608 8.94408 7.00186 8.69035 7.40888 8.56342L22.0021 4.00342ZM22.0021 8.19022L10.0021 11.9414V26.7482C10.0022 27.9731 10.2836 29.1815 10.8246 30.2805C11.3655 31.3794 12.1515 32.3394 13.1221 33.0866L13.4989 33.3578L22.0021 39.1634L29.5621 34.0034H20.0017C19.7389 34.0031 19.4788 33.951 19.2362 33.8501C18.9937 33.7492 18.7733 33.6014 18.5879 33.4153C18.4024 33.2292 18.2555 33.0084 18.1555 32.7654C18.0554 32.5224 18.0043 32.2622 18.0049 31.9994V16.0034C18.0049 15.4732 18.2155 14.9647 18.5904 14.5898C18.9654 14.2148 19.4739 14.0042 20.0041 14.0042H33.9997V11.9426L22.0021 8.19022ZM22.0021 24.0002V30.0002H40.0021V24.0002H22.0021ZM22.0021 20.0006H40.0021V18.0014H22.0021V20.0006Z" fill="#2593F7"/>
</g>
<defs>
<clipPath id="clip0_75_2892">
<rect width="48" height="48" fill="white"/>
</clipPath>
</defs>
</svg>
