<svg width="48" height="48" viewBox="0 0 48 48" fill="none" xmlns="http://www.w3.org/2000/svg">
<g clip-path="url(#clip0_75_2847)">
<path d="M33.9566 6.02652H41.921C42.449 6.02652 42.9554 6.23627 43.3288 6.60961C43.7021 6.98296 43.9118 7.48933 43.9118 8.01732V39.8761C43.9118 40.4041 43.7021 40.9105 43.3288 41.2838C42.9554 41.6572 42.449 41.8669 41.921 41.8669H6.08064C5.55265 41.8669 5.04628 41.6572 4.67294 41.2838C4.29959 40.9105 4.08984 40.4041 4.08984 39.8761V8.01852C4.08969 7.75699 4.14106 7.49798 4.24104 7.25631C4.34102 7.01463 4.48763 6.79503 4.67251 6.61004C4.85739 6.42505 5.07691 6.2783 5.31852 6.17818C5.56013 6.07806 5.81911 6.02652 6.08064 6.02652H14.0498V2.04492H18.0314V6.02652H29.9738V2.04492H33.9554L33.9566 6.02652ZM29.9738 10.0093H18.0278V13.9909H14.0498V10.0093H8.07144V17.9737H39.929V10.0093H33.9566V13.9909H29.9738V10.0093ZM39.9338 21.9553H8.07144V37.8841H39.929L39.9338 21.9553ZM12.0542 27.9289H16.0358V31.9105H12.0542V27.9289ZM20.0186 27.9289H35.9474V31.9105H20.0186V27.9289Z" fill="#2593F7"/>
</g>
<defs>
<clipPath id="clip0_75_2847">
<rect width="48" height="48" fill="white"/>
</clipPath>
</defs>
</svg>
