<svg width="48" height="48" viewBox="0 0 48 48" fill="none" xmlns="http://www.w3.org/2000/svg">
<g clip-path="url(#clip0_75_2856)">
<path d="M41.9618 6.00708V41.9927C41.9577 42.5169 41.7477 43.0184 41.377 43.3891C41.0063 43.7598 40.5048 43.9698 39.9806 43.9739H8.01977C7.49442 43.9736 6.99068 43.7647 6.61921 43.3932C6.24773 43.0218 6.03889 42.518 6.03857 41.9927V6.00708C6.04265 5.48289 6.2527 4.98133 6.62336 4.61067C6.99403 4.24 7.49559 4.02996 8.01977 4.02588H39.9794C40.5049 4.02588 41.009 4.23457 41.3807 4.60609C41.7525 4.9776 41.9615 5.48152 41.9618 6.00708ZM37.9694 8.02068H10.0298V39.9791H37.9694V8.02068ZM22.589 26.2391L31.0574 17.7659L33.8786 20.5859L22.589 31.8899L14.8262 24.1199L17.6498 21.2951L22.589 26.2391Z" fill="#2593F7"/>
</g>
<defs>
<clipPath id="clip0_75_2856">
<rect width="48" height="48" fill="white"/>
</clipPath>
</defs>
</svg>
