<svg width="50" height="50" viewBox="0 0 50 50" fill="none" xmlns="http://www.w3.org/2000/svg">
<g clip-path="url(#clip0_75_2899)">
<path d="M43.7277 6.28613C44.2794 6.28613 44.8086 6.50523 45.1989 6.89527C45.5892 7.28531 45.8086 7.81437 45.8089 8.36613V37.4911C45.8086 38.0429 45.5892 38.5719 45.1989 38.962C44.8086 39.352 44.2794 39.5711 43.7277 39.5711H13.4614L4.19141 46.8561V8.36613C4.19174 7.81437 4.41116 7.28531 4.80143 6.89527C5.19171 6.50523 5.72089 6.28613 6.27266 6.28613H43.7277ZM41.6477 10.4474H8.35266V38.2949L12.0214 35.4111H41.6464L41.6477 10.4474ZM21.9102 15.4661L22.8402 16.8974C21.7966 17.3925 20.919 18.1796 20.3138 19.1633C19.7086 20.147 19.4016 21.2852 19.4302 22.4399C19.7618 22.397 20.0971 22.3907 20.4302 22.4211C21.3681 22.495 22.241 22.9291 22.866 23.6324C23.491 24.3357 23.8195 25.2536 23.7826 26.1937C23.7458 27.1339 23.3464 28.0233 22.6683 28.6755C21.9902 29.3277 21.086 29.6921 20.1452 29.6924C19.611 29.6879 19.0831 29.5771 18.5923 29.3663C18.1014 29.1555 17.6575 28.8491 17.2864 28.4649C16.7165 27.8722 16.2759 27.1676 15.9923 26.3958C15.7087 25.6241 15.5884 24.8018 15.6389 23.9811C15.6389 20.3399 18.1939 17.0786 21.9127 15.4661H21.9102ZM32.3152 15.4661L33.2452 16.8974C32.2016 17.3925 31.324 18.1796 30.7188 19.1633C30.1136 20.147 29.8066 21.2852 29.8352 22.4399C30.1668 22.397 30.5021 22.3907 30.8352 22.4211C31.7731 22.495 32.646 22.9291 33.271 23.6324C33.896 24.3357 34.2245 25.2536 34.1876 26.1937C34.1508 27.1339 33.7514 28.0233 33.0733 28.6755C32.3952 29.3277 31.491 29.6921 30.5502 29.6924C30.016 29.6879 29.4881 29.5771 28.9973 29.3663C28.5064 29.1555 28.0625 28.8491 27.6914 28.4649C27.1215 27.8722 26.6809 27.1676 26.3973 26.3958C26.1137 25.6241 25.9934 24.8018 26.0439 23.9811C26.0439 20.3399 28.5989 17.0786 32.3177 15.4661H32.3152Z" fill="#2593F7"/>
</g>
<defs>
<clipPath id="clip0_75_2899">
<rect width="50" height="50" fill="white"/>
</clipPath>
</defs>
</svg>
