<svg width="48" height="48" viewBox="0 0 48 48" fill="none" xmlns="http://www.w3.org/2000/svg">
<g clip-path="url(#clip0_75_2870)">
<path d="M10.9106 6.67802C12.2721 6.20429 13.7432 6.14312 15.1393 6.50219C16.5355 6.86126 17.7945 7.62459 18.7586 8.69642C19.6992 9.7469 20.2879 11.0652 20.4422 12.4669C20.5965 13.8685 20.3086 15.2833 19.619 16.5132L41.5454 37.7424L38.651 40.5444L16.7222 19.32C15.4429 19.9863 13.9961 20.262 12.5615 20.1126C11.1269 19.9633 9.76788 19.3955 8.65335 18.48C7.56044 17.5877 6.77227 16.3774 6.39814 15.0169C6.024 13.6565 6.08244 12.2134 6.56535 10.8876L11.1446 15.318C11.7291 15.8768 12.5067 16.1887 13.3154 16.1887C14.124 16.1887 14.9016 15.8768 15.4862 15.318C15.7697 15.0467 15.9954 14.7207 16.1496 14.3598C16.3038 13.9989 16.3833 13.6105 16.3833 13.218C16.3833 12.8255 16.3038 12.4371 16.1496 12.0762C15.9954 11.7153 15.7697 11.3894 15.4862 11.118L10.9094 6.67802H10.9106ZM32.1326 10.416L38.6462 6.91802L41.5454 9.71402L37.9214 16.02L34.3022 16.722L29.963 20.922L27.0662 18.12L31.4078 13.92L32.1278 10.416H32.1326ZM18.3854 26.532L21.2798 29.334L10.4198 39.8436C10.0447 40.203 9.54951 40.4103 9.03026 40.4254C8.51101 40.4405 8.00466 40.2622 7.60935 39.9252C7.22093 39.5957 6.97794 39.1265 6.93302 38.6191C6.8881 38.1117 7.04486 37.607 7.36935 37.2144L7.52535 37.038L18.3854 26.532Z" fill="#2593F7"/>
</g>
<defs>
<clipPath id="clip0_75_2870">
<rect width="48" height="48" fill="white"/>
</clipPath>
</defs>
</svg>
