<svg width="48" height="48" viewBox="0 0 48 48" fill="none" xmlns="http://www.w3.org/2000/svg">
<g clip-path="url(#clip0_75_2906)">
<path d="M34 34V38C34 38.5304 34.2107 39.0391 34.5858 39.4142C34.9609 39.7893 35.4696 40 36 40C36.5304 40 37.0391 39.7893 37.4142 39.4142C37.7893 39.0391 38 38.5304 38 38V8H10V30H6V6C6 5.46957 6.21071 4.96086 6.58579 4.58579C6.96086 4.21071 7.46957 4 8 4H40C40.5304 4 41.0391 4.21071 41.4142 4.58579C41.7893 4.96086 42 5.46957 42 6V38C42 39.5913 41.3679 41.1174 40.2426 42.2426C39.1174 43.3679 37.5913 44 36 44H8C6.4087 44 4.88258 43.3679 3.75736 42.2426C2.63214 41.1174 2 39.5913 2 38V34H34Z" fill="#2593F7"/>
</g>
<defs>
<clipPath id="clip0_75_2906">
<rect width="48" height="48" fill="white"/>
</clipPath>
</defs>
</svg>
