<svg width="185" height="64" viewBox="0 0 185 64" fill="none" xmlns="http://www.w3.org/2000/svg">
<rect width="185" height="64" rx="4" fill="#172121"/>
<path d="M70.89 41.09C70.542 40.358 70.038 39.794 69.378 39.398C68.718 38.99 67.95 38.786 67.074 38.786C66.198 38.786 65.406 38.99 64.698 39.398C64.002 39.794 63.45 40.37 63.042 41.126C62.646 41.87 62.448 42.734 62.448 43.718C62.448 44.702 62.646 45.566 63.042 46.31C63.45 47.054 64.002 47.63 64.698 48.038C65.406 48.434 66.198 48.632 67.074 48.632C68.298 48.632 69.306 48.266 70.098 47.534C70.89 46.802 71.352 45.812 71.484 44.564H66.48V43.232H73.23V44.492C73.134 45.524 72.81 46.472 72.258 47.336C71.706 48.188 70.98 48.866 70.08 49.37C69.18 49.862 68.178 50.108 67.074 50.108C65.91 50.108 64.848 49.838 63.888 49.298C62.928 48.746 62.166 47.984 61.602 47.012C61.05 46.04 60.774 44.942 60.774 43.718C60.774 42.494 61.05 41.396 61.602 40.424C62.166 39.44 62.928 38.678 63.888 38.138C64.848 37.586 65.91 37.31 67.074 37.31C68.406 37.31 69.582 37.64 70.602 38.3C71.634 38.96 72.384 39.89 72.852 41.09H70.89ZM79.6978 50.162C78.7738 50.162 77.9338 49.952 77.1778 49.532C76.4338 49.112 75.8458 48.518 75.4138 47.75C74.9938 46.97 74.7838 46.07 74.7838 45.05C74.7838 44.042 74.9998 43.154 75.4318 42.386C75.8758 41.606 76.4758 41.012 77.2318 40.604C77.9878 40.184 78.8338 39.974 79.7698 39.974C80.7058 39.974 81.5518 40.184 82.3078 40.604C83.0638 41.012 83.6578 41.6 84.0898 42.368C84.5338 43.136 84.7558 44.03 84.7558 45.05C84.7558 46.07 84.5278 46.97 84.0718 47.75C83.6278 48.518 83.0218 49.112 82.2538 49.532C81.4858 49.952 80.6338 50.162 79.6978 50.162ZM79.6978 48.722C80.2858 48.722 80.8378 48.584 81.3538 48.308C81.8698 48.032 82.2838 47.618 82.5958 47.066C82.9198 46.514 83.0818 45.842 83.0818 45.05C83.0818 44.258 82.9258 43.586 82.6138 43.034C82.3018 42.482 81.8938 42.074 81.3898 41.81C80.8858 41.534 80.3398 41.396 79.7518 41.396C79.1518 41.396 78.5998 41.534 78.0958 41.81C77.6038 42.074 77.2078 42.482 76.9078 43.034C76.6078 43.586 76.4578 44.258 76.4578 45.05C76.4578 45.854 76.6018 46.532 76.8898 47.084C77.1898 47.636 77.5858 48.05 78.0778 48.326C78.5698 48.59 79.1098 48.722 79.6978 48.722ZM91.2114 50.162C90.2874 50.162 89.4474 49.952 88.6914 49.532C87.9474 49.112 87.3594 48.518 86.9274 47.75C86.5074 46.97 86.2974 46.07 86.2974 45.05C86.2974 44.042 86.5134 43.154 86.9454 42.386C87.3894 41.606 87.9894 41.012 88.7454 40.604C89.5014 40.184 90.3474 39.974 91.2834 39.974C92.2194 39.974 93.0654 40.184 93.8214 40.604C94.5774 41.012 95.1714 41.6 95.6034 42.368C96.0474 43.136 96.2694 44.03 96.2694 45.05C96.2694 46.07 96.0414 46.97 95.5854 47.75C95.1414 48.518 94.5354 49.112 93.7674 49.532C92.9994 49.952 92.1474 50.162 91.2114 50.162ZM91.2114 48.722C91.7994 48.722 92.3514 48.584 92.8674 48.308C93.3834 48.032 93.7974 47.618 94.1094 47.066C94.4334 46.514 94.5954 45.842 94.5954 45.05C94.5954 44.258 94.4394 43.586 94.1274 43.034C93.8154 42.482 93.4074 42.074 92.9034 41.81C92.3994 41.534 91.8534 41.396 91.2654 41.396C90.6654 41.396 90.1134 41.534 89.6094 41.81C89.1174 42.074 88.7214 42.482 88.4214 43.034C88.1214 43.586 87.9714 44.258 87.9714 45.05C87.9714 45.854 88.1154 46.532 88.4034 47.084C88.7034 47.636 89.0994 48.05 89.5914 48.326C90.0834 48.59 90.6234 48.722 91.2114 48.722ZM102.491 39.974C103.343 39.974 104.087 40.16 104.723 40.532C105.371 40.904 105.851 41.372 106.163 41.936V40.136H107.819V50.216C107.819 51.116 107.627 51.914 107.243 52.61C106.859 53.318 106.307 53.87 105.587 54.266C104.879 54.662 104.051 54.86 103.103 54.86C101.807 54.86 100.727 54.554 99.8631 53.942C98.9991 53.33 98.4891 52.496 98.3331 51.44H99.9531C100.133 52.04 100.505 52.52 101.069 52.88C101.633 53.252 102.311 53.438 103.103 53.438C104.003 53.438 104.735 53.156 105.299 52.592C105.875 52.028 106.163 51.236 106.163 50.216V48.146C105.839 48.722 105.359 49.202 104.723 49.586C104.087 49.97 103.343 50.162 102.491 50.162C101.615 50.162 100.817 49.946 100.097 49.514C99.3891 49.082 98.8311 48.476 98.4231 47.696C98.0151 46.916 97.8111 46.028 97.8111 45.032C97.8111 44.024 98.0151 43.142 98.4231 42.386C98.8311 41.618 99.3891 41.024 100.097 40.604C100.817 40.184 101.615 39.974 102.491 39.974ZM106.163 45.05C106.163 44.306 106.013 43.658 105.713 43.106C105.413 42.554 105.005 42.134 104.489 41.846C103.985 41.546 103.427 41.396 102.815 41.396C102.203 41.396 101.645 41.54 101.141 41.828C100.637 42.116 100.235 42.536 99.9351 43.088C99.6351 43.64 99.4851 44.288 99.4851 45.032C99.4851 45.788 99.6351 46.448 99.9351 47.012C100.235 47.564 100.637 47.99 101.141 48.29C101.645 48.578 102.203 48.722 102.815 48.722C103.427 48.722 103.985 48.578 104.489 48.29C105.005 47.99 105.413 47.564 105.713 47.012C106.013 46.448 106.163 45.794 106.163 45.05ZM112.225 36.68V50H110.587V36.68H112.225ZM124.017 44.69C124.017 45.002 123.999 45.332 123.963 45.68H116.079C116.139 46.652 116.469 47.414 117.069 47.966C117.681 48.506 118.419 48.776 119.283 48.776C119.991 48.776 120.579 48.614 121.047 48.29C121.527 47.954 121.863 47.51 122.055 46.958H123.819C123.555 47.906 123.027 48.68 122.235 49.28C121.443 49.868 120.459 50.162 119.283 50.162C118.347 50.162 117.507 49.952 116.763 49.532C116.031 49.112 115.455 48.518 115.035 47.75C114.615 46.97 114.405 46.07 114.405 45.05C114.405 44.03 114.609 43.136 115.017 42.368C115.425 41.6 115.995 41.012 116.727 40.604C117.471 40.184 118.323 39.974 119.283 39.974C120.219 39.974 121.047 40.178 121.767 40.586C122.487 40.994 123.039 41.558 123.423 42.278C123.819 42.986 124.017 43.79 124.017 44.69ZM122.325 44.348C122.325 43.724 122.187 43.19 121.911 42.746C121.635 42.29 121.257 41.948 120.777 41.72C120.309 41.48 119.787 41.36 119.211 41.36C118.383 41.36 117.675 41.624 117.087 42.152C116.511 42.68 116.181 43.412 116.097 44.348H122.325ZM139.366 41.126C139.366 42.17 139.006 43.04 138.286 43.736C137.578 44.42 136.492 44.762 135.028 44.762H132.616V50H130.978V37.454H135.028C136.444 37.454 137.518 37.796 138.25 38.48C138.994 39.164 139.366 40.046 139.366 41.126ZM135.028 43.412C135.94 43.412 136.612 43.214 137.044 42.818C137.476 42.422 137.692 41.858 137.692 41.126C137.692 39.578 136.804 38.804 135.028 38.804H132.616V43.412H135.028ZM143.04 36.68V50H141.402V36.68H143.04ZM145.219 45.032C145.219 44.024 145.423 43.142 145.831 42.386C146.239 41.618 146.797 41.024 147.505 40.604C148.225 40.184 149.023 39.974 149.899 39.974C150.763 39.974 151.513 40.16 152.149 40.532C152.785 40.904 153.259 41.372 153.571 41.936V40.136H155.227V50H153.571V48.164C153.247 48.74 152.761 49.22 152.113 49.604C151.477 49.976 150.733 50.162 149.881 50.162C149.005 50.162 148.213 49.946 147.505 49.514C146.797 49.082 146.239 48.476 145.831 47.696C145.423 46.916 145.219 46.028 145.219 45.032ZM153.571 45.05C153.571 44.306 153.421 43.658 153.121 43.106C152.821 42.554 152.413 42.134 151.897 41.846C151.393 41.546 150.835 41.396 150.223 41.396C149.611 41.396 149.053 41.54 148.549 41.828C148.045 42.116 147.643 42.536 147.343 43.088C147.043 43.64 146.893 44.288 146.893 45.032C146.893 45.788 147.043 46.448 147.343 47.012C147.643 47.564 148.045 47.99 148.549 48.29C149.053 48.578 149.611 48.722 150.223 48.722C150.835 48.722 151.393 48.578 151.897 48.29C152.413 47.99 152.821 47.564 153.121 47.012C153.421 46.448 153.571 45.794 153.571 45.05ZM166.491 40.136L160.551 54.644H158.859L160.803 49.892L156.825 40.136H158.643L161.739 48.128L164.799 40.136H166.491Z" fill="white"/>
<path d="M68.47 16.07C68.1993 15.5007 67.8073 15.062 67.294 14.754C66.7807 14.4367 66.1833 14.278 65.502 14.278C64.8207 14.278 64.2047 14.4367 63.654 14.754C63.1127 15.062 62.6833 15.51 62.366 16.098C62.058 16.6767 61.904 17.3487 61.904 18.114C61.904 18.8793 62.058 19.5513 62.366 20.13C62.6833 20.7087 63.1127 21.1567 63.654 21.474C64.2047 21.782 64.8207 21.936 65.502 21.936C66.454 21.936 67.238 21.6513 67.854 21.082C68.47 20.5127 68.8293 19.7427 68.932 18.772H65.04V17.736H70.29V18.716C70.2153 19.5187 69.9633 20.256 69.534 20.928C69.1047 21.5907 68.54 22.118 67.84 22.51C67.14 22.8927 66.3607 23.084 65.502 23.084C64.5967 23.084 63.7707 22.874 63.024 22.454C62.2773 22.0247 61.6847 21.432 61.246 20.676C60.8167 19.92 60.602 19.066 60.602 18.114C60.602 17.162 60.8167 16.308 61.246 15.552C61.6847 14.7867 62.2773 14.194 63.024 13.774C63.7707 13.3447 64.5967 13.13 65.502 13.13C66.538 13.13 67.4527 13.3867 68.246 13.9C69.0487 14.4133 69.632 15.1367 69.996 16.07H68.47ZM78.9745 18.87C78.9745 19.1127 78.9605 19.3693 78.9325 19.64H72.8005C72.8472 20.396 73.1038 20.9887 73.5705 21.418C74.0465 21.838 74.6205 22.048 75.2925 22.048C75.8432 22.048 76.3005 21.922 76.6645 21.67C77.0378 21.4087 77.2992 21.0633 77.4485 20.634H78.8205C78.6152 21.3713 78.2045 21.9733 77.5885 22.44C76.9725 22.8973 76.2072 23.126 75.2925 23.126C74.5645 23.126 73.9112 22.9627 73.3325 22.636C72.7632 22.3093 72.3152 21.8473 71.9885 21.25C71.6618 20.6433 71.4985 19.9433 71.4985 19.15C71.4985 18.3567 71.6572 17.6613 71.9745 17.064C72.2918 16.4667 72.7352 16.0093 73.3045 15.692C73.8832 15.3653 74.5458 15.202 75.2925 15.202C76.0205 15.202 76.6645 15.3607 77.2245 15.678C77.7845 15.9953 78.2138 16.434 78.5125 16.994C78.8205 17.5447 78.9745 18.17 78.9745 18.87ZM77.6585 18.604C77.6585 18.1187 77.5512 17.7033 77.3365 17.358C77.1218 17.0033 76.8278 16.7373 76.4545 16.56C76.0905 16.3733 75.6845 16.28 75.2365 16.28C74.5925 16.28 74.0418 16.4853 73.5845 16.896C73.1365 17.3067 72.8798 17.876 72.8145 18.604H77.6585ZM82.2101 16.378V20.9C82.2101 21.2733 82.2895 21.5393 82.4481 21.698C82.6068 21.8473 82.8821 21.922 83.2741 21.922H84.2121V23H83.0641C82.3548 23 81.8228 22.8367 81.4681 22.51C81.1135 22.1833 80.9361 21.6467 80.9361 20.9V16.378H79.9421V15.328H80.9361V13.396H82.2101V15.328H84.2121V16.378H82.2101ZM90.7622 13.242V23H89.4882V13.242H90.7622ZM94.4875 16.378V20.9C94.4875 21.2733 94.5668 21.5393 94.7255 21.698C94.8841 21.8473 95.1595 21.922 95.5515 21.922H96.4895V23H95.3415C94.6321 23 94.1001 22.8367 93.7455 22.51C93.3908 22.1833 93.2135 21.6467 93.2135 20.9V16.378H92.2195V15.328H93.2135V13.396H94.4875V15.328H96.4895V16.378H94.4875ZM106.19 23.098C105.284 23.098 104.458 22.888 103.712 22.468C102.965 22.0387 102.372 21.446 101.934 20.69C101.504 19.9247 101.29 19.066 101.29 18.114C101.29 17.162 101.504 16.308 101.934 15.552C102.372 14.7867 102.965 14.194 103.712 13.774C104.458 13.3447 105.284 13.13 106.19 13.13C107.104 13.13 107.935 13.3447 108.682 13.774C109.428 14.194 110.016 14.782 110.446 15.538C110.875 16.294 111.09 17.1527 111.09 18.114C111.09 19.0753 110.875 19.934 110.446 20.69C110.016 21.446 109.428 22.0387 108.682 22.468C107.935 22.888 107.104 23.098 106.19 23.098ZM106.19 21.992C106.871 21.992 107.482 21.8333 108.024 21.516C108.574 21.1987 109.004 20.746 109.312 20.158C109.629 19.57 109.788 18.8887 109.788 18.114C109.788 17.33 109.629 16.6487 109.312 16.07C109.004 15.482 108.579 15.0293 108.038 14.712C107.496 14.3947 106.88 14.236 106.19 14.236C105.499 14.236 104.883 14.3947 104.342 14.712C103.8 15.0293 103.371 15.482 103.054 16.07C102.746 16.6487 102.592 17.33 102.592 18.114C102.592 18.8887 102.746 19.57 103.054 20.158C103.371 20.746 103.8 21.1987 104.342 21.516C104.892 21.8333 105.508 21.992 106.19 21.992ZM116.509 15.188C117.443 15.188 118.199 15.4727 118.777 16.042C119.356 16.602 119.645 17.414 119.645 18.478V23H118.385V18.66C118.385 17.8947 118.194 17.3113 117.811 16.91C117.429 16.4993 116.906 16.294 116.243 16.294C115.571 16.294 115.035 16.504 114.633 16.924C114.241 17.344 114.045 17.9553 114.045 18.758V23H112.771V15.328H114.045V16.42C114.297 16.028 114.638 15.7247 115.067 15.51C115.506 15.2953 115.987 15.188 116.509 15.188Z" fill="white"/>
<g clip-path="url(#clip0_75_1542)">
<path d="M18.5443 18.471C18.162 18.9275 17.9684 19.5122 18.003 20.106V45.8985C17.9701 46.492 18.1632 47.076 18.5435 47.5335L18.6322 47.622L33.1276 33.165V32.8223L18.633 18.3825L18.5443 18.471Z" fill="url(#paint0_linear_75_1542)"/>
<path d="M37.9317 37.992L33.0969 33.1687V32.826L37.9317 28.0125L38.04 28.071L43.7694 31.3162C45.4106 32.238 45.4106 33.7575 43.7694 34.6912L38.04 37.9365L37.9317 37.992Z" fill="url(#paint1_linear_75_1542)"/>
<path d="M38.0706 37.9163L33.1568 33.0143L18.5442 47.5335C18.8809 47.8093 19.2999 47.9656 19.7354 47.978C20.1708 47.9903 20.5981 47.858 20.9499 47.6018L38.0413 37.9163" fill="url(#paint2_linear_75_1542)"/>
<path d="M38.0708 28.0875L20.9516 18.3923C20.6039 18.1252 20.174 17.9866 19.7353 18.0003C19.2966 18.014 18.8763 18.179 18.5459 18.4673L33.1307 33.0173L38.0708 28.0875Z" fill="url(#paint3_linear_75_1542)"/>
<path opacity="0.1" d="M37.9624 37.8082L20.9522 47.4352C20.6129 47.6875 20.2011 47.8237 19.7779 47.8237C19.3548 47.8237 18.9429 47.6875 18.6036 47.4352L18.5149 47.5237L18.6036 47.6122C18.9429 47.8645 19.3548 48.0007 19.7779 48.0007C20.2011 48.0007 20.6129 47.8645 20.9522 47.6122L38.0413 37.9282L37.9624 37.8082Z" fill="black"/>
<path opacity="0.07" d="M18.5442 47.376C18.1629 46.9143 17.9697 46.3263 18.003 45.729V45.8955C17.9702 46.4898 18.1635 47.0745 18.5442 47.5328L18.633 47.4443L18.5442 47.376Z" fill="black"/>
<path opacity="0.07" d="M43.7686 34.5083L37.9316 37.8218L38.0399 37.9298L43.7693 34.6455C44.1054 34.4981 44.3962 34.2644 44.612 33.9681C44.8278 33.6719 44.9609 33.3239 44.9978 32.9595C44.9307 33.2963 44.7843 33.6124 44.5707 33.8816C44.3571 34.1509 44.0825 34.3657 43.7693 34.5083H43.7686Z" fill="black"/>
<path opacity="0.3" d="M20.9484 18.5685L43.77 31.5C44.0798 31.6392 44.3524 31.8493 44.5656 32.1133C44.7787 32.3774 44.9265 32.6878 44.9969 33.0195C44.9622 32.6547 44.8301 32.3058 44.6143 32.0093C44.3985 31.7127 44.1069 31.4794 43.77 31.3335L20.9484 18.3915C19.3389 17.4705 18.0037 18.2347 18.0037 20.1075V20.274C18.0037 18.411 19.3389 17.637 20.9484 18.5685Z" fill="white"/>
</g>
<defs>
<linearGradient id="paint0_linear_75_1542" x1="31.8568" y1="19.8445" x2="8.64079" y2="26.0308" gradientUnits="userSpaceOnUse">
<stop stop-color="#008EFF"/>
<stop offset="0.01" stop-color="#008FFF"/>
<stop offset="0.26" stop-color="#00ACFF"/>
<stop offset="0.51" stop-color="#00C0FF"/>
<stop offset="0.76" stop-color="#00CDFF"/>
<stop offset="1" stop-color="#00D1FF"/>
</linearGradient>
<linearGradient id="paint1_linear_75_1542" x1="43.9647" y1="33.0022" x2="15.6466" y2="33.0022" gradientUnits="userSpaceOnUse">
<stop stop-color="#FFD800"/>
<stop offset="1" stop-color="#FF8A00"/>
</linearGradient>
<linearGradient id="paint2_linear_75_1542" x1="35.3955" y1="35.663" x2="16.9222" y2="67.031" gradientUnits="userSpaceOnUse">
<stop stop-color="#FF3A44"/>
<stop offset="1" stop-color="#B11162"/>
</linearGradient>
<linearGradient id="paint3_linear_75_1542" x1="14.8752" y1="9.87473" x2="23.1731" y2="23.8692" gradientUnits="userSpaceOnUse">
<stop stop-color="#328E71"/>
<stop offset="0.07" stop-color="#2D9571"/>
<stop offset="0.48" stop-color="#15BD74"/>
<stop offset="0.8" stop-color="#06D575"/>
<stop offset="1" stop-color="#00DE76"/>
</linearGradient>
<clipPath id="clip0_75_1542">
<rect width="27" height="30" fill="white" transform="translate(18 18)"/>
</clipPath>
</defs>
</svg>
