<svg width="1920" height="990" viewBox="0 0 1920 990" fill="none" xmlns="http://www.w3.org/2000/svg">
<rect width="1920" height="990" fill="#010101"/>
<mask id="mask0_311_1270" style="mask-type:alpha" maskUnits="userSpaceOnUse" x="0" y="0" width="651" height="990">
<rect width="651" height="990" fill="#D9D9D9"/>
</mask>
<g mask="url(#mask0_311_1270)">
<path d="M-21.4398 959.072C-121.434 925.595 -209.275 863.256 -273.885 779.919C-338.495 696.582 -376.98 595.978 -384.487 490.797C-391.993 385.615 -368.185 280.565 -316.065 188.898C-263.944 97.2298 -185.845 23.0492 -91.6183 -24.2891C2.60819 -71.6274 108.742 -90.0032 213.399 -77.0985C318.055 -64.1938 416.547 -20.5866 496.452 48.223C576.357 117.033 634.097 207.963 662.389 309.546C690.68 411.13 688.257 518.815 655.424 619.023C633.504 685.926 598.569 747.834 552.629 801.182C506.689 854.53 450.65 898.265 387.74 929.87C324.831 961.476 256.291 980.327 186.067 985.338C115.843 990.35 45.3208 981.423 -21.4398 959.072V959.072ZM35.2764 785.979L381.49 714.384L491.042 380.042L254.355 117.369L-91.8459 189.052L-201.397 523.394L35.2764 785.979Z" fill="url(#paint0_linear_311_1270)" fill-opacity="0.4"/>
</g>
<defs>
<linearGradient id="paint0_linear_311_1270" x1="828.072" y1="-106.339" x2="31.592" y2="185.435" gradientUnits="userSpaceOnUse">
<stop offset="0.73654" stop-color="#111111"/>
<stop offset="1" stop-color="white" stop-opacity="0"/>
</linearGradient>
</defs>
</svg>
