<svg width="968" height="948" viewBox="0 0 968 948" fill="none" xmlns="http://www.w3.org/2000/svg">
<rect width="968" height="948" fill="#020528"/>
<mask id="mask0_260_1406" style="mask-type:alpha" maskUnits="userSpaceOnUse" x="0" y="190" width="306" height="758">
<rect y="190" width="306" height="758" fill="#D9D9D9"/>
</mask>
<g mask="url(#mask0_260_1406)">
<g opacity="0.8">
<g opacity="0.5">
<path d="M177.414 945.721L112.256 916.706" stroke="#2593F7" stroke-width="0.148077" stroke-miterlimit="10"/>
<path d="M172.287 932.362L107.129 903.348" stroke="#2593F7" stroke-width="0.200104" stroke-miterlimit="10"/>
<path d="M167.161 919.005L102.002 889.99" stroke="#2593F7" stroke-width="0.252132" stroke-miterlimit="10"/>
<path d="M162.034 905.646L96.8757 876.632" stroke="#2593F7" stroke-width="0.304159" stroke-miterlimit="10"/>
<path d="M156.908 892.289L91.7498 863.274" stroke="#2593F7" stroke-width="0.356186" stroke-miterlimit="10"/>
<path d="M151.781 878.931L86.6228 849.916" stroke="#2593F7" stroke-width="0.408213" stroke-miterlimit="10"/>
<path d="M146.654 865.573L81.4961 836.559" stroke="#2593F7" stroke-width="0.46024" stroke-miterlimit="10"/>
<path d="M141.528 852.215L76.3694 823.2" stroke="#2593F7" stroke-width="0.512267" stroke-miterlimit="10"/>
<path d="M136.401 838.857L71.2427 809.843" stroke="#2593F7" stroke-width="0.564295" stroke-miterlimit="10"/>
<path d="M131.274 825.5L66.1155 796.485" stroke="#2593F7" stroke-width="0.616322" stroke-miterlimit="10"/>
<path d="M126.147 812.143L60.9885 783.128" stroke="#2593F7" stroke-width="0.668349" stroke-miterlimit="10"/>
<path d="M121.02 798.784L55.8618 769.77" stroke="#2593F7" stroke-width="0.720376" stroke-miterlimit="10"/>
<path d="M115.893 785.426L50.7351 756.411" stroke="#2593F7" stroke-width="0.772403" stroke-miterlimit="10"/>
<path d="M110.767 772.068L45.6084 743.054" stroke="#2593F7" stroke-width="0.82443" stroke-miterlimit="10"/>
<path d="M105.64 758.71L40.4817 729.695" stroke="#2593F7" stroke-width="0.876458" stroke-miterlimit="10"/>
<path d="M100.513 745.353L35.3547 716.338" stroke="#2593F7" stroke-width="0.928485" stroke-miterlimit="10"/>
<path d="M95.3862 731.994L30.228 702.979" stroke="#2593F7" stroke-width="0.980512" stroke-miterlimit="10"/>
<path d="M90.2592 718.637L25.1011 689.622" stroke="#2593F7" stroke-width="1.03254" stroke-miterlimit="10"/>
<path d="M85.1325 705.278L19.9744 676.264" stroke="#2593F7" stroke-width="1.08457" stroke-miterlimit="10"/>
<path d="M80.0056 691.921L14.8474 662.906" stroke="#2593F7" stroke-width="1.13659" stroke-miterlimit="10"/>
<path d="M74.8788 678.562L9.7207 649.548" stroke="#2593F7" stroke-width="1.18862" stroke-miterlimit="10"/>
<path d="M69.7521 665.205L4.59399 636.19" stroke="#2593F7" stroke-width="1.24065" stroke-miterlimit="10"/>
<path d="M64.6254 651.847L-0.532715 622.832" stroke="#2593F7" stroke-width="1.29268" stroke-miterlimit="10"/>
<path d="M59.4987 638.489L-5.65942 609.475" stroke="#2593F7" stroke-width="1.3447" stroke-miterlimit="10"/>
<path d="M54.3718 625.131L-10.7864 596.116" stroke="#2593F7" stroke-width="1.39673" stroke-miterlimit="10"/>
<path d="M49.246 611.773L-15.9121 582.759" stroke="#2593F7" stroke-width="1.44876" stroke-miterlimit="10"/>
<path d="M44.1191 598.415L-21.0391 569.4" stroke="#2593F7" stroke-width="1.50078" stroke-miterlimit="10"/>
<path d="M38.9924 585.058L-26.1658 556.043" stroke="#2593F7" stroke-width="1.55281" stroke-miterlimit="10"/>
<path d="M33.8652 571.7L-31.293 542.686" stroke="#2593F7" stroke-width="1.60484" stroke-miterlimit="10"/>
<path d="M28.7382 558.343L-36.4199 529.328" stroke="#2593F7" stroke-width="1.65687" stroke-miterlimit="10"/>
<path d="M23.6115 544.984L-41.5466 515.97" stroke="#2593F7" stroke-width="1.70889" stroke-miterlimit="10"/>
<path d="M18.4848 531.627L-46.6733 502.612" stroke="#2593F7" stroke-width="1.76092" stroke-miterlimit="10"/>
<path d="M13.3581 518.269L-51.8 489.254" stroke="#2593F7" stroke-width="1.81295" stroke-miterlimit="10"/>
<path d="M8.23114 504.91L-56.927 475.896" stroke="#2593F7" stroke-width="1.86397" stroke-miterlimit="10"/>
<path d="M3.10444 491.553L-62.0537 462.538" stroke="#2593F7" stroke-width="1.916" stroke-miterlimit="10"/>
</g>
</g>
</g>
</svg>
