<svg width="40" height="40" viewBox="0 0 40 40" fill="none" xmlns="http://www.w3.org/2000/svg">
<circle cx="20" cy="20" r="20" fill="#2593F7"/>
<g clip-path="url(#clip0_126_7503)">
<path d="M18.553 10.6742C18.3328 11.2856 18.1331 11.8073 18.1087 11.8318C18.0842 11.8563 17.9742 11.9011 17.86 11.9255C17.379 12.0438 16.3845 12.4799 15.822 12.8264C15.6752 12.916 15.5367 12.9894 15.5163 12.9894C15.4918 12.9894 14.9864 12.7571 14.3953 12.4758L13.3193 11.9622L12.5896 12.6429L11.86 13.3236L12.3818 14.4201L12.9035 15.5125L12.7364 15.8101C12.3981 16.4092 12.0027 17.416 11.9049 17.9378C11.8926 18.0193 11.86 18.0967 11.8315 18.1171C11.807 18.1375 11.2853 18.3332 10.678 18.5533L9.56519 18.9527V20.0003V21.0478L10.678 21.4473C11.2853 21.6674 11.807 21.8671 11.8356 21.8916C11.86 21.916 11.9212 22.0832 11.9701 22.2625C12.1046 22.772 12.3328 23.3549 12.6263 23.95L12.8994 24.5003L12.3777 25.5886L11.86 26.6769L12.5896 27.4106L13.3233 28.1402L14.4198 27.6185L15.5163 27.0927L15.7812 27.2557C16.3723 27.6185 17.2853 28.022 17.8478 28.1728L18.1209 28.2462L18.2391 28.556C18.3043 28.7272 18.4918 29.2204 18.6549 29.6484L18.9565 30.4351H20H21.0475L21.447 29.3264C21.6671 28.7149 21.8668 28.1932 21.8913 28.1647C21.9157 28.1402 22.1399 28.0587 22.3845 27.9894C22.6331 27.916 22.8492 27.8467 22.8695 27.8345C22.8858 27.8264 22.5312 27.4432 22.0747 26.9826C21.4184 26.3304 21.2269 26.1552 21.1617 26.1755C21.1168 26.1837 20.8233 26.2163 20.5136 26.2367C18.6345 26.3834 16.8573 25.719 15.5367 24.3861C14.3668 23.2041 13.7554 21.6959 13.7595 20.0003C13.7595 19.1851 13.8655 18.5859 14.1426 17.8114C14.5828 16.5927 15.5367 15.4351 16.7065 14.6891C18.235 13.719 20.2078 13.4867 21.985 14.0696C24.7242 14.9704 26.538 17.734 26.1915 20.4894L26.1508 20.8318L27.0394 21.7204L27.928 22.609L28.0176 22.3359C28.0665 22.181 28.1155 21.9935 28.1277 21.912L28.1521 21.7693L29.2934 21.4065L30.4347 21.0438V20.0003V18.9568L29.2853 18.5899L28.1399 18.2272L28.0299 17.8399C27.8301 17.1389 27.5163 16.4133 27.1372 15.7652C27.0679 15.6511 27.0108 15.537 27.0108 15.5125C27.0108 15.4921 27.2391 14.9908 27.5203 14.4038L28.0299 13.3359L27.3043 12.6103C26.9089 12.215 26.5665 11.8889 26.5421 11.8889C26.5217 11.8929 26.0244 12.1212 25.4415 12.3984L24.3818 12.9038L24.1168 12.7571C23.4809 12.3984 22.8695 12.1497 22.2011 11.9745L21.7731 11.8603L21.4103 10.715L21.0434 9.56549H20H18.9524L18.553 10.6742Z" fill="white"/>
<path d="M19.307 15.7487C19.1399 15.7813 18.9932 15.8139 18.985 15.8261C18.9728 15.8343 19.4456 16.3234 20.0285 16.9144C21.129 18.0191 21.2024 18.1128 21.3655 18.6142C21.4755 18.9443 21.4674 19.5354 21.3451 19.8574C21.2921 19.9919 21.2024 20.1753 21.1413 20.265C20.9456 20.5503 20.5095 20.9335 20.2364 21.0598C19.6413 21.3411 18.7934 21.284 18.2799 20.9335C18.1943 20.8764 17.6684 20.3954 17.11 19.8655C16.2418 19.0462 16.0054 18.8424 16.0054 18.9117C16.0054 18.9158 15.9769 19.0503 15.9443 19.2052C15.8464 19.6617 15.8627 20.3873 15.9809 20.8682C16.2826 22.0625 17.1222 23.106 18.2269 23.6441C18.7038 23.8764 19.0665 23.9824 19.5964 24.0435C19.9674 24.0843 20.1019 24.0802 20.4932 24.0272C20.75 23.9905 21.0964 23.9131 21.2635 23.856L21.5693 23.7541L24.7486 26.9294C27.2391 29.4117 27.9728 30.125 28.1358 30.2025C28.7269 30.496 29.3668 30.3981 29.8926 29.9294C30.4225 29.4525 30.5366 28.6821 30.182 27.9688C30.129 27.8628 28.9959 26.7011 26.9823 24.6835L23.8641 21.5571L23.966 21.3003C24.1535 20.8234 24.2187 20.4362 24.2146 19.8166C24.2146 19.3682 24.1943 19.1767 24.125 18.9199C23.8722 17.9661 23.375 17.1794 22.6698 16.6169C22.1195 16.1807 21.447 15.8587 20.8193 15.7446C20.4035 15.6631 19.7187 15.6672 19.307 15.7487Z" fill="white"/>
</g>
<defs>
<clipPath id="clip0_126_7503">
<rect width="20.8696" height="20.8696" fill="white" transform="translate(9.56519 9.56543)"/>
</clipPath>
</defs>
</svg>
